<svg xmlns="http://www.w3.org/2000/svg" width="736.949" height="402.116" viewBox="0 0 736.949 402.116">
  <g id="Group_7" data-name="Group 7" transform="translate(0 -0.035)">
    <path id="Path_11" data-name="Path 11" d="M754.141,509.35a120.845,120.845,0,0,1-10.516,20.225,87.052,87.052,0,0,1-6.37,8.76.449.449,0,0,1-.07.077H25l.1-.077c.641-.5,4.4-3.544,10.253-8.76,4.2-3.736,9.465-8.594,15.38-14.438,48.376-47.582,141.3-160.207,63.91-263.38-71.946-95.913,5.518-113.318,56.617-115.349a145.987,145.987,0,0,1,57.585,9.414c23.608,8.972,66.755,22.724,122.969,29.029,1.846.205,3.7.41,5.588.6a538.366,538.366,0,0,0,89.575,1.628h0c.878-.051,1.762-.115,2.653-.179a532.279,532.279,0,0,0,87.614-13.553c1.865-.455,3.7-.884,5.537-1.314,95.887-22.185,184.283,53.426,162.181,138.874-8.17,31.606-6.094,65.294,21.147,92.548C770.706,437.936,765.3,481.75,754.141,509.35Z" transform="translate(-25 -136.26)" fill="#0e92dd" opacity="0.1"/>
    <path id="Path_12" data-name="Path 12" d="M754.195,712.392a120.82,120.82,0,0,1-10.516,20.225,87.018,87.018,0,0,1-6.37,8.76H25.15c.641-.5,4.4-3.544,10.253-8.76,4.2-3.736,9.465-8.593,15.38-14.438l75.06-15.508a14.617,14.617,0,0,1,2.948-.3l80.02-.115h.083l39.635-.051h.09l33.451-.038H326.4l91.908-.128H457.85l15.784-.179h5.216l45.909-.064H546.47l53.029-.07h15.79l50.228-.07,42.4-.051a15.034,15.034,0,0,1,3.505.416Z" transform="translate(-25.054 -339.302)" fill="#454b69"/>
    <path id="Path_13" data-name="Path 13" d="M35.4,750H743.679a87.026,87.026,0,0,1-6.37,8.76H25.15C25.778,758.228,29.54,755.184,35.4,750Z" transform="translate(-25.054 -356.685)" fill="none"/>
    <path id="Path_14" data-name="Path 14" d="M35.4,750H743.679a87.026,87.026,0,0,1-6.37,8.76H25.15C25.778,758.228,29.54,755.184,35.4,750Z" transform="translate(-25.054 -356.685)" opacity="0.4"/>
    <path id="Path_15" data-name="Path 15" d="M655.509,335.8l-1.423.276-64.313,12.355c-18.68,3.589-37.63,7.2-56.6,5.819-13.746-1-26.588-5.075-39.8-8.651-7.466-2.025-15.38-2.832-17.911-11.189-3.493-11.535,2.192-28.613,3.531-40.3,1.282-11.471,2.038-23.23-.244-34.566a61.48,61.48,0,0,0-2-7.523c-2.288-6.786-5.883-13.842-3.941-20.731,1.532-5.466,6.2-9.369,10.574-12.983,8.561-7.049,17.3-14.95,20.7-25.518,1.666-5.127,1.98-10.644,3.775-15.732,3.4-9.676,11.951-16.911,21.461-20.744s19.968-4.646,30.228-4.646a204.782,204.782,0,0,1,27.077,1.8c9.8,1.283,19.685,3.391,28.291,8.249s15.861,12.817,17.866,22.519c2.839,13.72-5.043,28.331-.814,41.654,2.128,6.735,7.049,12.176,10.465,18.34a43.686,43.686,0,0,1,3.2,33.964c-4.088,12.669-14.1,25.486-8.972,37.77,3.262,7.812,11.593,11.984,17.4,18.174Q654.836,334.962,655.509,335.8Z" transform="translate(-185.641 -141.779)" fill="#454b69"/>
    <path id="Path_16" data-name="Path 16" d="M655.258,377.763v1.891l-64.313,12.355c-18.68,3.589-37.63,7.2-56.6,5.819-13.746-1-26.588-5.075-39.8-8.651-7.466-2.025-15.38-2.832-17.911-11.189-3.492-11.535,2.192-28.613,3.531-40.3,1.282-11.471,21.013-53.349,18.731-64.685l117.912,5.127c.794,6.261,31.958,37.687,30.016,43.692-4.089,12.669-14.1,25.486-8.972,37.77C641.121,367.4,649.452,371.572,655.258,377.763Z" transform="translate(-186.812 -185.36)" opacity="0.1"/>
    <path id="Path_17" data-name="Path 17" d="M546.523,365.881c.7,3.967,1.07,8.331-.955,11.791-2.7,4.64-8.581,6.12-13.842,7.171L513.463,388.5a7.089,7.089,0,0,0-3.493,1.384,6.109,6.109,0,0,0-1.628,3.992c-.737,6.613,1.6,13.131,3.736,19.43,4.313,12.759,7.933,25.787,13.387,38.1s12.938,24.063,23.621,32.291,24.819,12.612,37.9,9.394c11.394-2.8,20.737-10.843,28.793-19.372,6.645-7.049,12.861-14.739,16.085-23.884,2.224-6.28,2.948-12.97,3.646-19.6q1.621-15.239,3.243-30.478c.506-4.768.839-10.131-2.256-13.791a16.426,16.426,0,0,0-5.088-3.672c-7.011-3.723-14.393-6.8-20.916-11.285S598.18,360.344,596.2,352.68c-1.185-4.6-.974-9.612-2.993-13.9-2.256-4.806-7.049-8.062-12.176-9.491s-10.535-1.237-15.816-.641-25.633,2.121-27.819,8.074c-1.172,3.2,3.691,10.08,4.845,13.233A92.381,92.381,0,0,1,546.523,365.881Z" transform="translate(-198.553 -205.187)" fill="#efb7b9"/>
    <path id="Path_18" data-name="Path 18" d="M546.523,365.881c.7,3.967,1.07,8.331-.955,11.791-2.7,4.64-8.581,6.12-13.842,7.171L513.463,388.5a7.089,7.089,0,0,0-3.493,1.384,6.109,6.109,0,0,0-1.628,3.992c-.737,6.613,1.6,13.131,3.736,19.43,4.313,12.759,7.933,25.787,13.387,38.1s12.938,24.063,23.621,32.291,24.819,12.612,37.9,9.394c11.394-2.8,20.737-10.843,28.793-19.372,6.645-7.049,12.861-14.739,16.085-23.884,2.224-6.28,2.948-12.97,3.646-19.6q1.621-15.239,3.243-30.478c.506-4.768.839-10.131-2.256-13.791a16.426,16.426,0,0,0-5.088-3.672c-7.011-3.723-14.393-6.8-20.916-11.285S598.18,360.344,596.2,352.68c-1.185-4.6-.974-9.612-2.993-13.9-2.256-4.806-7.049-8.062-12.176-9.491s-10.535-1.237-15.816-.641-25.633,2.121-27.819,8.074c-1.172,3.2,3.691,10.08,4.845,13.233A92.381,92.381,0,0,1,546.523,365.881Z" transform="translate(-198.553 -205.187)" opacity="0.1"/>
    <path id="Path_19" data-name="Path 19" d="M585.806,460.481l10.708-22.672c5.018-10.625,10.144-21.788,9.612-33.522-.1-2.333-.128-5.248,1.923-6.306a5.5,5.5,0,0,1,2.813-.359,113.8,113.8,0,0,1,33.009,6.678,13.1,13.1,0,0,1,5.607,3.242A13.382,13.382,0,0,1,652,413.5a173.981,173.981,0,0,1,3.672,21.7c1.923,18.084.968,36.329,0,54.47l-2.845,55.387a5.29,5.29,0,0,1-.468,2.281c-.7,1.282-2.294,1.711-3.723,1.955-5.5.942-11.131.749-16.706.538-39.219-1.487-78.642-3.768-117.6.987q.263-8.645-.275-17.3c-1.544-24.922-8-49.235-14.348-73.381-3.7-14.1-7.28-29.478-1.326-42.763a18.317,18.317,0,0,1,3.71-5.652c2.531-2.48,5.985-3.787,9.407-4.723a59.87,59.87,0,0,1,18.129-2.051l40.4,87.966c1.846,4.025,3.364,8.26,5.2,12.233,1.653-6.863-.333-14.906,1.653-22.346C579.02,475.086,582.39,467.7,585.806,460.481Z" transform="translate(-193.882 -230.104)" fill="#fff"/>
    <path id="Path_20" data-name="Path 20" d="M555.673,520.16c7.229.455,14.252-3.249,19.225-8.484s8.254-11.875,11.029-18.584a183.274,183.274,0,0,0,9.478-29.549c1.923-8.587,3.287-17.475,1.961-26.178-1.833-12.016-8.632-22.935-9.792-35.034-.2-2.115-.07-4.588,1.628-5.864a6.76,6.76,0,0,1,3.742-.974c12.086-.718,25.364-.583,34.726,7.088,2.852,2.333,5.165,5.248,7.953,7.651,6.639,5.767,16.021,8.7,20.282,16.36,1.487,2.666,2.2,5.684,3.236,8.555,2.448,6.793,6.684,12.765,10.894,18.642-4.082,17.225-8.773,34.464-12.855,51.689-2.39,10.106-4.8,20.25-8.555,29.927-2.461,6.344-5.556,12.817-4.8,19.609a44.766,44.766,0,0,0,1.967,7.805,89.708,89.708,0,0,1,3.774,27.9l-182.854.449c8.76-12.56,11.33-27.966,10.439-43.25-.429-7.325-2.083-14.694-5.767-21.032-5.806-9.933-16.021-16.4-26.088-21.948-7.049-3.845-14.617,17.789-22.237,15.309,1.23-8.7,1.794-42.295,1.282-51.055-.167-2.871-.423-5.819.461-8.562.6-1.877,1.711-3.556,2.461-5.383,3.005-7.312.141-16.662,5-22.884,3.358-4.326,9.247-5.556,14.034-8.222,4.915-2.743,8.715-7.049,13-10.727A57.8,57.8,0,0,1,488.873,400.2a37.257,37.257,0,0,1,5.645,16.662c.327,3.723.09,7.5.609,11.2.711,5.018,2.788,9.728,4.845,14.367,8.568,19.347,17.168,38.751,28.023,56.918,3.07,5.127,6.408,10.253,10.856,14.246S549.7,520.442,555.673,520.16Z" transform="translate(-167.972 -229.257)" fill="#0e92dd"/>
    <path id="Path_21" data-name="Path 21" d="M555.673,520.16c7.229.455,14.252-3.249,19.225-8.484s8.254-11.875,11.029-18.584a183.274,183.274,0,0,0,9.478-29.549c1.923-8.587,3.287-17.475,1.961-26.178-1.833-12.016-8.632-22.935-9.792-35.034-.2-2.115-.07-4.588,1.628-5.864a6.76,6.76,0,0,1,3.742-.974c12.086-.718,25.364-.583,34.726,7.088,2.852,2.333,5.165,5.248,7.953,7.651,6.639,5.767,16.021,8.7,20.282,16.36,1.487,2.666,2.2,5.684,3.236,8.555,2.448,6.793,6.684,12.765,10.894,18.642-4.082,17.225-8.773,34.464-12.855,51.689-2.39,10.106-4.8,20.25-8.555,29.927-2.461,6.344-5.556,12.817-4.8,19.609a44.766,44.766,0,0,0,1.967,7.805,89.708,89.708,0,0,1,3.774,27.9l-182.854.449c8.76-12.56,11.33-27.966,10.439-43.25-.429-7.325-2.083-14.694-5.767-21.032-5.806-9.933-16.021-16.4-26.088-21.948-7.049-3.845-14.617,17.789-22.237,15.309,1.23-8.7,1.794-42.295,1.282-51.055-.167-2.871-.423-5.819.461-8.562.6-1.877,1.711-3.556,2.461-5.383,3.005-7.312.141-16.662,5-22.884,3.358-4.326,9.247-5.556,14.034-8.222,4.915-2.743,8.715-7.049,13-10.727A57.8,57.8,0,0,1,488.873,400.2a37.257,37.257,0,0,1,5.645,16.662c.327,3.723.09,7.5.609,11.2.711,5.018,2.788,9.728,4.845,14.367,8.568,19.347,17.168,38.751,28.023,56.918,3.07,5.127,6.408,10.253,10.856,14.246S549.7,520.442,555.673,520.16Z" transform="translate(-167.972 -229.257)" opacity="0.1"/>
    <circle id="Ellipse_17" data-name="Ellipse 17" cx="54.932" cy="54.932" r="54.932" transform="translate(323.099 49.376)" fill="#efb7b9"/>
    <path id="Path_22" data-name="Path 22" d="M545.536,326.964c1.506-14.213-4.4-28.12-11.093-40.75-3.2-6.037-6.639-12.054-8.248-18.687s-1.147-14.143,2.967-19.6c3.5-4.64,9.048-7.145,14.182-9.869,14.489-7.69,27.735-18.994,34.1-34.111-3.6,1.961-2.666,7.812.513,10.394s7.51,3.082,11.419,4.313c14.252,4.486,22.8,18.7,29.657,31.977,1.122,2.166,2.262,4.454,2.249,6.9s-1.128,4.608-2.294,6.684c-3.384,6.024-7.523,11.81-9.061,18.546-1.762,7.69.1,15.777,2.512,23.32,2.563,8.023,5.966,16.11,12.118,21.865s15.694,8.613,23.262,4.9c-7.555-12.99-15.38-27.5-12.432-42.231,1.422-7.049,5.248-13.457,6.876-20.468,3.1-13.374-2.063-27.133-7.133-39.9l-15.149-38.1c-2.313-5.825-4.947-12.041-10.253-15.341-3.588-2.224-7.933-2.8-12.137-3.2-13.534-1.2-27.556-.807-40.154,4.229-22.954,9.17-37.347,31.779-48.767,53.708-3.422,6.568-6.8,13.547-6.658,20.955.077,4.063,1.211,8.017,2.134,11.977,3.755,16.123,3.96,32.83,4.153,49.382.147,12.7-.513,24.672-6.069,36.239,7.613,1.512,18.654,5.594,26.191,2.608C538.25,348.816,544.3,336.852,545.536,326.964Z" transform="translate(-196.33 -149.454)" fill="#454b69"/>
    <g id="Group_3" data-name="Group 3" transform="translate(305.653 53.483)" opacity="0.1">
      <path id="Path_23" data-name="Path 23" d="M508.255,356.27q.038-2.711,0-5.473c-.192-16.553-.4-33.259-4.153-49.382a83.343,83.343,0,0,1-1.961-9.535,24.952,24.952,0,0,0-.173,3.326c.077,4.063,1.211,8.017,2.134,11.977C507.839,323.21,508.069,339.814,508.255,356.27Z" transform="translate(-501.966 -245.625)"/>
      <path id="Path_24" data-name="Path 24" d="M716.669,318.17a38.782,38.782,0,0,0,.833-11.419,35.577,35.577,0,0,1-.833,5.652c-1.628,7.049-5.454,13.4-6.876,20.468a33.974,33.974,0,0,0-.513,9.471,33.627,33.627,0,0,1,.513-3.7C711.215,331.569,715.041,325.193,716.669,318.17Z" transform="translate(-576.382 -250.966)"/>
      <path id="Path_25" data-name="Path 25" d="M633.861,271.351a9.235,9.235,0,0,0,.5-2.826c0-2.442-1.128-4.729-2.25-6.9-6.857-13.278-15.38-27.479-29.657-31.977-3.909-1.23-8.235-1.73-11.42-4.313a8.127,8.127,0,0,1-2.807-5.639c-6.947,12.752-18.879,22.506-31.811,29.356-5.127,2.723-10.683,5.229-14.181,9.869-3.288,4.358-4.242,10.029-3.672,15.514a19.615,19.615,0,0,1,3.672-9.747c3.5-4.64,9.048-7.145,14.181-9.869,12.932-6.85,24.864-16.6,31.811-29.356a8.126,8.126,0,0,0,2.807,5.639c3.2,2.563,7.511,3.082,11.42,4.313,14.252,4.486,22.8,18.7,29.657,31.977a25.227,25.227,0,0,1,1.75,3.954Z" transform="translate(-515.055 -219.7)"/>
      <path id="Path_26" data-name="Path 26" d="M684.664,385.718c-6.152-5.768-9.542-13.842-12.118-21.865a63.291,63.291,0,0,1-3.076-13.912c-.6,6.581,1.038,13.316,3.076,19.68,2.563,8.023,5.966,16.11,12.118,21.865s15.694,8.613,23.262,4.9c-.91-1.557-1.813-3.14-2.71-4.736C698.186,393.625,690.111,390.806,684.664,385.718Z" transform="translate(-562.084 -266.479)"/>
      <path id="Path_27" data-name="Path 27" d="M545.647,403.3c-1.237,9.888-7.286,21.852-17.136,25.761-6.838,2.711-16.572-.4-24-2.127a55.548,55.548,0,0,1-2.192,5.287c7.613,1.512,18.654,5.594,26.191,2.608,9.849-3.909,15.9-15.873,17.136-25.761a44.535,44.535,0,0,0,.141-7.446C545.749,402.178,545.691,402.742,545.647,403.3Z" transform="translate(-502.093 -285.041)"/>
    </g>
    <path id="Path_28" data-name="Path 28" d="M665.66,650.361c-9.9-1.57-19.949-4.6-29.766-2.563a41.383,41.383,0,0,0-15.623,7.434c2.6,2.083,5.639,3.941,7.293,6.838a26.9,26.9,0,0,1,2.294,6.325A53.824,53.824,0,0,1,632.1,680.16a17.907,17.907,0,0,1-3.025,11.388c12.484,1.23,24.582-1.846,36.758-4.851a10.069,10.069,0,0,0,3.89-1.57c1.922-1.513,2.486-4.2,2.5-6.658,0-4.383-1.23-8.658-2.48-12.861C668.255,660.563,667.153,655.373,665.66,650.361Z" transform="translate(-238.804 -319.733)" fill="#fff"/>
    <path id="Path_29" data-name="Path 29" d="M753.171,483.281c4.915.641,8.728,4.608,11.535,8.683,7.876,11.343,11.272,25.095,15.053,38.379a510.837,510.837,0,0,0,16.578,48.78,73.389,73.389,0,0,0,4.973,10.7c1.583,2.646,3.505,5.191,4.2,8.2,1.692,7.267-4.3,14.1-10.548,18.148a41.744,41.744,0,0,1-10.8,5.2,64.3,64.3,0,0,1-11.484,1.961l-35.572,3.845c-16.373,1.781-32.894,3.563-49.273,1.846-1.032-3.589.993-6.126.846-9.862-.1-2.672-1.282-5.159-2.333-7.619a48.694,48.694,0,0,1-3.8-13.784,18.691,18.691,0,0,0-.916-5.171,4.847,4.847,0,0,0-3.845-3.2c9.613-.955,16.911-2.768,26.524-3.73,3.57-.359,7.28-.762,10.324-2.659,3.774-2.352,5.889-6.594,7.568-10.708,4.159-10.189,6.838-21.417,4.652-32.208-1.794-8.85-6.8-17.091-6.773-26.12,0-5.376,1.833-10.586,4-15.508,2.294-5.2,5.287-10.522,10.324-13.163S747.487,482.512,753.171,483.281Z" transform="translate(-259.464 -260.741)" fill="#0e92dd"/>
    <path id="Path_30" data-name="Path 30" d="M753.171,483.281c4.915.641,8.728,4.608,11.535,8.683,7.876,11.343,11.272,25.095,15.053,38.379a510.837,510.837,0,0,0,16.578,48.78,73.389,73.389,0,0,0,4.973,10.7c1.583,2.646,3.505,5.191,4.2,8.2,1.692,7.267-4.3,14.1-10.548,18.148a41.744,41.744,0,0,1-10.8,5.2,64.3,64.3,0,0,1-11.484,1.961l-35.572,3.845c-16.373,1.781-32.894,3.563-49.273,1.846-1.032-3.589.993-6.126.846-9.862-.1-2.672-1.282-5.159-2.333-7.619a48.694,48.694,0,0,1-3.8-13.784,18.691,18.691,0,0,0-.916-5.171,4.847,4.847,0,0,0-3.845-3.2c9.613-.955,16.911-2.768,26.524-3.73,3.57-.359,7.28-.762,10.324-2.659,3.774-2.352,5.889-6.594,7.568-10.708,4.159-10.189,6.838-21.417,4.652-32.208-1.794-8.85-6.8-17.091-6.773-26.12,0-5.376,1.833-10.586,4-15.508,2.294-5.2,5.287-10.522,10.324-13.163S747.487,482.512,753.171,483.281Z" transform="translate(-259.464 -260.741)" opacity="0.08"/>
    <path id="Path_31" data-name="Path 31" d="M445.1,414.866c2.326-5.524,4.691-11.227,4.755-17.219.07-6.479-2.563-12.631-4.576-18.783a108.605,108.605,0,0,1-4.941-23.192,3.2,3.2,0,0,1,.32-2.224,3.819,3.819,0,0,1,2.461-1.1c4.435-1.013,7.786-4.595,10.555-8.2a89.938,89.938,0,0,0,10.8-18.046c2.121-4.723,4.992-10.484,10.17-10.529a293.734,293.734,0,0,1-7.741,29c5.415-1.384,10.561-3.4,15.976-4.781a9.567,9.567,0,0,1,3.281-.436c3.243.34,5.229,4.729,3.345,7.389,2.647,3.1,7.049,3.935,10.51,6.062s5.947,7.4,2.871,10.067a8.581,8.581,0,0,0-1.8,1.551c-1.487,2.294,2.153,4.928,1.852,7.645-.243,2.224-3.1,3.262-5.255,2.672s-3.845-2.2-5.767-3.39-4.435-1.922-6.3-.692c-.5,6.03-1.038,12.176-3.646,17.668-.955,2.006-2.179,3.883-2.948,5.966a29.406,29.406,0,0,0-1.359,7l-2.326,21.269C464.242,424.786,454.289,421.46,445.1,414.866Z" transform="translate(-174.151 -200.65)" fill="#efb7b9"/>
    <path id="Path_32" data-name="Path 32" d="M442.251,485.461l-2.044-13.835a22.477,22.477,0,0,1-.327-3.409c0-3.2,1.41-6.261,2.775-9.177,11.311,5.28,23.538,7.158,36.014,7.164,1.647,0,3.525-.154,4.55-1.442,2.121,2.441,2.185,6.37,1.282,9.471s-2.64,5.9-3.794,8.92a12.717,12.717,0,0,1-2.172,4.383c-1.73,1.865-4.537,2.185-7.088,2.172a45.3,45.3,0,0,1-8-.763C456.619,487.679,449.082,484.237,442.251,485.461Z" transform="translate(-174.013 -252.181)" fill="#fff"/>
    <path id="Path_33" data-name="Path 33" d="M474.475,495.658q-13.169-1.5-26.165-4.229c-4.249-.891-8.536-1.884-12.868-1.711-2.82.115-5.851.679-8.331-.718a40.109,40.109,0,0,1-.327,24.954c-1.711,4.806-4.319,9.286-5.575,14.233-2.615,10.349.974,21.635-2.294,31.8a8.051,8.051,0,0,1-1.974,3.537c-1,.916-2.365,1.391-3.287,2.384-1.359,1.461-1.442,3.659-1.448,5.652l-.058,17.655c-.038,11.24.109,23.159,6.043,32.682A31.031,31.031,0,0,0,451.6,635.122a24.84,24.84,0,0,0,9.074-4.441c4.306-3.422,7.049-8.369,9.734-13.188,3.2-5.768,6.408-11.663,7.44-18.155.73-4.595.32-9.286-.205-13.906-2.9-25.633-9.183-51.048-7.831-76.778A23.269,23.269,0,0,1,474.475,495.658Z" transform="translate(-164.051 -262.942)" fill="#0e92dd"/>
    <path id="Path_34" data-name="Path 34" d="M523.229,663.791a77.685,77.685,0,0,1-13.374,0c-3.2-.385-6.331-1.173-9.51-1.711a60.949,60.949,0,0,0-49.081,13.637c-2.461,2.1-4.947,5.325-3.589,8.267,1.461,3.166,5.928,3.076,9.369,2.486a28.194,28.194,0,0,0-9.612,7.517c-.961,1.173-1.871,2.563-1.685,4.082.391,3.172,4.7,3.749,7.882,3.473-1.038,1.115-.34,3.089.98,3.845a6.575,6.575,0,0,0,4.454.327,33.014,33.014,0,0,0,9.459-3.274,3.6,3.6,0,0,0,1.922,4.191,7.918,7.918,0,0,0,4.941.455c7.831-1.282,14.367-6.729,22.006-8.869,12.214-3.416,24.992,2.031,37.687,2.416a26.292,26.292,0,0,0,11.67-1.922c4.441-2.019,8.023-5.806,12.714-7.152,5.21-1.487,11.189.224,15.957-2.345,3.467-1.865.34-16.239-.545-19.007-1.621-5.062-3.249-8.42-8.651-8.933C552.553,659.933,537,663,523.229,663.791Z" transform="translate(-176.112 -324.697)" fill="#efb7b9"/>
    <path id="Path_35" data-name="Path 35" d="M619.88,657.93s20.692,17.514,8.754,36.623l23.07-7.966V669.869c0-.795-8.76-12.733-8.76-12.733l-10.349-1.6Z" transform="translate(-238.664 -322.758)" fill="#fff"/>
    <path id="Path_36" data-name="Path 36" d="M247.811,521.32h7.76a16.021,16.021,0,0,1,16.021,16.021v23.781h-39.8V537.341A16.021,16.021,0,0,1,247.811,521.32Z" transform="translate(-83.252 -187.231)" fill="#3f3d56"/>
    <path id="Path_37" data-name="Path 37" d="M247.811,521.32h7.76a16.021,16.021,0,0,1,16.021,16.021v23.781h-39.8V537.341A16.021,16.021,0,0,1,247.811,521.32Z" transform="translate(-83.252 -187.231)" opacity="0.1"/>
    <circle id="Ellipse_18" data-name="Ellipse 18" cx="3.185" cy="3.185" r="3.185" transform="translate(163.661 336.473)" fill="#3f3d56"/>
    <circle id="Ellipse_19" data-name="Ellipse 19" cx="3.185" cy="3.185" r="3.185" transform="translate(163.661 332.494)" fill="#3f3d56"/>
    <circle id="Ellipse_20" data-name="Ellipse 20" cx="3.185" cy="3.185" r="3.185" transform="translate(163.661 328.514)" fill="#3f3d56"/>
    <circle id="Ellipse_21" data-name="Ellipse 21" cx="3.185" cy="3.185" r="3.185" transform="translate(163.661 324.535)" fill="#3f3d56"/>
    <circle id="Ellipse_22" data-name="Ellipse 22" cx="3.185" cy="3.185" r="3.185" transform="translate(163.661 320.555)" fill="#3f3d56"/>
    <circle id="Ellipse_23" data-name="Ellipse 23" cx="3.185" cy="3.185" r="3.185" transform="translate(163.661 316.575)" fill="#3f3d56"/>
    <circle id="Ellipse_24" data-name="Ellipse 24" cx="3.185" cy="3.185" r="3.185" transform="translate(163.661 312.589)" fill="#3f3d56"/>
    <circle id="Ellipse_25" data-name="Ellipse 25" cx="3.185" cy="3.185" r="3.185" transform="translate(168.442 314.185)" fill="#3f3d56"/>
    <circle id="Ellipse_26" data-name="Ellipse 26" cx="3.185" cy="3.185" r="3.185" transform="translate(171.627 312.589)" fill="#3f3d56"/>
    <circle id="Ellipse_27" data-name="Ellipse 27" cx="3.185" cy="3.185" r="3.185" transform="translate(174.812 311)" fill="#3f3d56"/>
    <circle id="Ellipse_28" data-name="Ellipse 28" cx="3.185" cy="3.185" r="3.185" transform="translate(163.661 308.61)" fill="#3f3d56"/>
    <circle id="Ellipse_29" data-name="Ellipse 29" cx="3.185" cy="3.185" r="3.185" transform="translate(163.661 304.63)" fill="#3f3d56"/>
    <circle id="Ellipse_30" data-name="Ellipse 30" cx="3.185" cy="3.185" r="3.185" transform="translate(163.661 300.651)" fill="#3f3d56"/>
    <circle id="Ellipse_31" data-name="Ellipse 31" cx="3.185" cy="3.185" r="3.185" transform="translate(163.661 296.671)" fill="#3f3d56"/>
    <path id="Path_38" data-name="Path 38" d="M291,581.835q-1.192.173-2.384.25a18.306,18.306,0,0,0,2.051-2.1,13.456,13.456,0,0,0-1.922-3.736,6.55,6.55,0,0,1-2.563.808c-.788.115-1.583.2-2.378.256a39.711,39.711,0,0,0,3.044-3.2,13.522,13.522,0,1,0,4.441,10,13.24,13.24,0,0,0-.205-2.326Z" transform="translate(-110.931 -292.251)" fill="#0e92dd"/>
    <path id="Path_39" data-name="Path 39" d="M315.462,611.946a6.181,6.181,0,0,1-2.679.891c-.788.115-1.583.2-2.377.256a23.34,23.34,0,0,0,2.358-2.448,7.972,7.972,0,1,0,2.7,1.282Z" transform="translate(-124.771 -306.54)" fill="#0e92dd"/>
    <circle id="Ellipse_32" data-name="Ellipse 32" cx="3.185" cy="3.185" r="3.185" transform="translate(158.887 314.185)" fill="#3f3d56"/>
    <circle id="Ellipse_33" data-name="Ellipse 33" cx="3.185" cy="3.185" r="3.185" transform="translate(155.702 312.589)" fill="#3f3d56"/>
    <circle id="Ellipse_34" data-name="Ellipse 34" cx="3.185" cy="3.185" r="3.185" transform="translate(152.517 311)" fill="#3f3d56"/>
    <path id="Path_40" data-name="Path 40" d="M246.331,611.946a6.175,6.175,0,0,0,2.679.891c.788.115,1.583.205,2.377.256a22.7,22.7,0,0,1-2.358-2.448,7.972,7.972,0,1,1-2.7,1.282Z" transform="translate(-103.324 -306.54)" fill="#0e92dd"/>
    <path id="Path_41" data-name="Path 41" d="M247.8,525h7.76a16.021,16.021,0,0,1,16.021,16.021v21.064a2.717,2.717,0,0,1-2.717,2.717H234.477a2.717,2.717,0,0,1-2.717-2.717V541.021A16.021,16.021,0,0,1,247.8,525Z" transform="translate(-83.242 -188.552)" fill="#3f3d56"/>
    <g id="Group_4" data-name="Group 4" transform="translate(153.504 278.532)" opacity="0.1">
      <path id="Path_42" data-name="Path 42" d="M305.765,589.49a12.043,12.043,0,0,1-1.025.974,10.415,10.415,0,0,0,1.089-.1C305.817,590.073,305.8,589.779,305.765,589.49Z" transform="translate(-278.979 -577.567)"/>
      <path id="Path_43" data-name="Path 43" d="M297.28,582.063c.8-.051,1.589-.135,2.384-.25a7.688,7.688,0,0,0,2.07-.564,14.05,14.05,0,0,0-1.115-1.839,4.815,4.815,0,0,1-1.282.545,18.451,18.451,0,0,1-2.057,2.108Z" transform="translate(-276.299 -573.947)"/>
      <path id="Path_44" data-name="Path 44" d="M265.943,585.839a13.509,13.509,0,0,1,20.827-11.381l.205-.218a13.521,13.521,0,1,0-17.828,20.333,13.457,13.457,0,0,1-3.2-8.735Z" transform="translate(-264.54 -570.885)"/>
    </g>
    <g id="Group_5" data-name="Group 5" transform="translate(177.996 303.836)" opacity="0.1">
      <path id="Path_45" data-name="Path 45" d="M314.68,615.546c.795-.051,1.589-.135,2.377-.25a6.181,6.181,0,0,0,2.679-.9,7.966,7.966,0,0,1,3.2,5.639,7.279,7.279,0,0,0,.045-.84,7.934,7.934,0,0,0-3.2-6.408,6.181,6.181,0,0,1-2.679.891l-.641.083A16.253,16.253,0,0,1,314.68,615.546Z" transform="translate(-307.041 -611.239)"/>
      <path id="Path_46" data-name="Path 46" d="M310.719,611.959a6.567,6.567,0,0,1,.795.058c.416-.442.827-.916,1.243-1.378a7.946,7.946,0,0,0-10,7.69,5.46,5.46,0,0,0,.038.795A7.959,7.959,0,0,1,310.719,611.959Z" transform="translate(-302.76 -610.37)"/>
    </g>
    <g id="Group_6" data-name="Group 6" transform="translate(139.758 303.836)" opacity="0.1">
      <path id="Path_47" data-name="Path 47" d="M251.4,615.546c-.795-.051-1.589-.135-2.377-.25a6.181,6.181,0,0,1-2.679-.9,7.966,7.966,0,0,0-3.2,5.639,7.3,7.3,0,0,1-.045-.84,7.934,7.934,0,0,1,3.2-6.408,6.18,6.18,0,0,0,2.679.891l.641.083A15.168,15.168,0,0,0,251.4,615.546Z" transform="translate(-243.09 -611.239)"/>
      <path id="Path_48" data-name="Path 48" d="M254.408,611.959a6.748,6.748,0,0,0-.8.058c-.41-.442-.82-.916-1.237-1.378a7.946,7.946,0,0,1,10,7.69,5.463,5.463,0,0,1-.038.795A7.959,7.959,0,0,0,254.408,611.959Z" transform="translate(-246.423 -610.37)"/>
    </g>
    <path id="Path_49" data-name="Path 49" d="M185.268,715.8H122.659A2.659,2.659,0,0,1,120,713.141V683.509a2.659,2.659,0,0,1,3.8-2.4c17.988,8.536,37.367,11.464,60.238.135a2.666,2.666,0,0,1,3.845,2.377V713.1A2.659,2.659,0,0,1,185.268,715.8Z" transform="translate(-59.121 -331.848)" fill="#0e92dd"/>
    <path id="Path_50" data-name="Path 50" d="M185.268,715.8H122.659A2.659,2.659,0,0,1,120,713.141V683.509a2.659,2.659,0,0,1,3.8-2.4c17.988,8.536,37.367,11.464,60.238.135a2.666,2.666,0,0,1,3.845,2.377V713.1A2.659,2.659,0,0,1,185.268,715.8Z" transform="translate(-59.121 -331.848)" opacity="0.1"/>
    <ellipse id="Ellipse_35" data-name="Ellipse 35" cx="3.704" cy="4.851" rx="3.704" ry="4.851" transform="translate(90.703 351.725)" fill="#3f3d56"/>
    <ellipse id="Ellipse_36" data-name="Ellipse 36" cx="3.704" cy="4.851" rx="3.704" ry="4.851" transform="translate(90.703 345.797)" fill="#3f3d56"/>
    <ellipse id="Ellipse_37" data-name="Ellipse 37" cx="3.704" cy="4.851" rx="3.704" ry="4.851" transform="translate(90.703 339.863)" fill="#3f3d56"/>
    <ellipse id="Ellipse_38" data-name="Ellipse 38" cx="3.704" cy="4.851" rx="3.704" ry="4.851" transform="translate(90.703 333.935)" fill="#3f3d56"/>
    <ellipse id="Ellipse_39" data-name="Ellipse 39" cx="3.704" cy="4.851" rx="3.704" ry="4.851" transform="translate(90.703 328.001)" fill="#3f3d56"/>
    <ellipse id="Ellipse_40" data-name="Ellipse 40" cx="3.704" cy="4.851" rx="3.704" ry="4.851" transform="translate(90.703 322.067)" fill="#3f3d56"/>
    <ellipse id="Ellipse_41" data-name="Ellipse 41" cx="3.704" cy="4.851" rx="3.704" ry="4.851" transform="translate(90.703 316.14)" fill="#3f3d56"/>
    <path id="Path_51" data-name="Path 51" d="M176.225,557.656a18.865,18.865,0,0,0,1.378-2.031l-9.741-1.6,10.535.077a17.758,17.758,0,0,0,.34-14.1l-14.13,7.331,13.034-9.612a17.757,17.757,0,1,0-29.331,19.866,17.366,17.366,0,0,0-2.025,3.236l12.637,6.639-13.457-4.55a17.777,17.777,0,0,0,2.864,16.662,17.757,17.757,0,1,0,27.914,0,17.757,17.757,0,0,0,0-21.955Z" transform="translate(-67.925 -277.255)" fill="#0e92dd"/>
    <path id="Path_52" data-name="Path 52" d="M144.49,590.783a17.681,17.681,0,0,0,3.8,10.977,17.757,17.757,0,1,0,27.915,0C178.582,598.742,144.49,588.79,144.49,590.783Z" transform="translate(-67.917 -299.405)" opacity="0.1"/>
    <path id="Path_53" data-name="Path 53" d="M185.268,717.371H122.659a2.66,2.66,0,0,1-2.659-2.66v-31.2a2.659,2.659,0,0,1,3.8-2.4c17.988,8.536,32.253,18.488,60.238.135,1.66-1.089,3.845.4,3.845,2.377V714.7A2.66,2.66,0,0,1,185.268,717.371Z" transform="translate(-59.121 -331.848)" fill="#0e92dd"/>
    <path id="Path_54" data-name="Path 54" d="M842.158,569.69,749.79,581.91l-4.62.609L700.01,558.4v-5.646L841.133,537.36Z" transform="translate(-251.424 -192.992)" fill="#9c9ca1"/>
    <path id="Path_55" data-name="Path 55" d="M740.85,567.578l100.065-11.8-1.025,18.475-77.944,5.716Z" transform="translate(-266.093 -199.608)" fill="#939498"/>
    <path id="Path_56" data-name="Path 56" d="M774.786,720.729v6.063l-4.62.641L725,703.286V697.64l43.109,23.07S773.761,721.242,774.786,720.729Z" transform="translate(-276.42 -337.879)" opacity="0.4"/>
    <path id="Path_57" data-name="Path 57" d="M818.659,577.123l-20.737,96.156a6.139,6.139,0,0,0,6.806,7.389l131.2-17.367a6.139,6.139,0,0,0,5.024-4.153l28.305-85.358a6.151,6.151,0,0,0-6.126-8.074L824.375,572.3A6.152,6.152,0,0,0,818.659,577.123Z" transform="translate(-302.562 -290.494)" fill="#3f3d56"/>
    <ellipse id="Ellipse_42" data-name="Ellipse 42" cx="5.575" cy="3.582" rx="5.575" ry="3.582" transform="matrix(0.105, -0.995, 0.995, 0.105, 580.48, 326.901)" fill="#fff"/>
  </g>
</svg>
