<svg xmlns="http://www.w3.org/2000/svg" width="668.915" height="546.452" viewBox="0 0 668.915 546.452">
  <g id="Group_11" data-name="Group 11" transform="translate(-0.001 -0.022)">
    <path id="Path_111" data-name="Path 111" d="M761.2,365.3v1.239q-.109,10.739-1.273,21.424a.75.75,0,0,1,0,.129c-.061.592-.129,1.177-.2,1.769-.116,1-.238,1.994-.374,2.995a215.4,215.4,0,0,1-7.847,35.926h0a193.739,193.739,0,0,1-20.485,45.107q-4.029,6.465-8.582,12.515h0c-1.62,2.137-3.273,4.226-4.982,6.281q-1.8,2.157-3.661,4.247l-.776.857a201.929,201.929,0,0,1-21.1,20.049,331.122,331.122,0,0,1-38.839,27.181c-.762.47-1.531.932-2.3,1.361a1.118,1.118,0,0,1-.17.1,409.581,409.581,0,0,1-56.554,28.9c-21.3,8.732-43.3,15.081-65.864,17.858-31.455,3.865-63.292.721-94.557-4.682a614.49,614.49,0,0,1-76.9-18.375l-4.151-1.3q-3.226-1.028-6.445-2.1Q326.7,560.363,307.688,552.5a505.434,505.434,0,0,1-90.738-48.721q-5.444-3.661-10.732-7.486-7.391-5.322-14.6-10.957l-2.967-2.3a305.067,305.067,0,0,1-35.266-32.388c-14.646-15.939-27.161-33.919-35.389-54.445q-1.946-4.839-3.566-9.861l-.1-.333c-.544-1.7-1.048-3.4-1.511-5.172q-1.021-3.8-1.79-7.69c-.109-.5-.2-.994-.293-1.5a128.767,128.767,0,0,1-2.144-26.494,122.5,122.5,0,0,1,2.722-23.139h0a104.386,104.386,0,0,1,7.711-22.846h0a82.345,82.345,0,0,1,11.794-18.191h0A69.575,69.575,0,0,1,141.925,270.6a90.776,90.776,0,0,1,24.058-12.359h0c3.988-1.429,8.031-2.681,12.093-3.845,2.879-.83,5.771-1.62,8.65-2.4l8.493-2.293c5.444-1.484,10.889-3.008,16.252-4.655,14.618-4.464,28.944-9.868,42.194-17.926,2.1-1.273,4.233-2.668,6.37-4.165q4.083-2.838,8.058-6.166h0c2.681-2.246,5.308-4.648,7.813-7.193.388-.395.769-.789,1.15-1.191,2.042-2.151,4.022-4.4,5.86-6.744.9-1.143,1.769-2.307,2.6-3.491,1.15-1.64,2.239-3.308,3.246-5.023h0c5.05-8.575,8.167-18.035,7.8-28a43.1,43.1,0,0,0-.442-4.907c-.885-6.009-1.735-11.876-2.362-17.613-2.627-23.731-1.518-45.25,16.292-65.469,22.145-25.133,56.9-30.258,88.54-28.25,91.473,5.785,174.746,58.011,247.926,120.186q9.494,8.058,18.756,16.333,2.334,2.082,4.675,4.192c11.57,10.419,22.962,21.227,33.572,32.8.857.939,1.715,1.878,2.559,2.824.517.585,1.041,1.164,1.552,1.756q4.961,5.615,9.63,11.5a217.891,217.891,0,0,1,22,33.347,189.31,189.31,0,0,1,19.314,58.984h0a210.153,210.153,0,0,1,2.334,22.574c.116,2.225.19,4.458.231,6.683v2.137C761.2,363.261,761.2,364.268,761.2,365.3Z" transform="translate(-108.55 -48.49)" fill="#0e92dd" opacity="0.1"/>
    <path id="Path_112" data-name="Path 112" d="M388.869,447.462,377.98,641.278l10.889.143,8.847-196.68Z" transform="translate(-120.743 -142.063)" fill="#3f3d56"/>
    <rect id="Rectangle_86" data-name="Rectangle 86" width="134.75" height="29.264" transform="translate(93.223 403.597)" fill="#0e92dd"/>
    <path id="Path_113" data-name="Path 113" d="M384.339,679.51v18.375H245.145q-7.391-5.322-14.6-10.957V679.51Z" transform="translate(-147.519 -250.059)" fill="#3f3d56"/>
    <path id="Path_114" data-name="Path 114" d="M394.205,581.2c-.381,1.763-.878,3.5-1.4,5.24-1.545,5.016-3.4,9.963-3.764,15.176-.483,6.887,1.361,14.9-3.4,19.9-1.225,1.293-2.824,2.259-3.92,3.641a6.376,6.376,0,0,0-.463.68,10.549,10.549,0,0,0-1.109,5.445,95.271,95.271,0,0,0,.769,11.808c1.613,13.475,4.8,26.977.612,39.7a61.213,61.213,0,0,1-2.647,6.472c-2.042,4.492-4.267,8.922-4.934,13.788a86.868,86.868,0,0,0-.368,10.991q-3.226-1.028-6.445-2.1-19.443-6.431-38.451-14.292c.034-.184.068-.374.1-.558.973-6.057-.361-12.25-1.98-18.157-3.4-12.515-8.221-24.908-11.073-37.512a94.932,94.932,0,0,1-2.253-14.972c-.082-1.13-.129-2.266-.136-3.4-.034-1.484,0-2.967.061-4.464.143-2.988.272-6.533-2.117-8.35-1.313-.987-3.049-1.157-4.58-1.756-2.954-1.15-4.975-3.818-7.316-5.955A9.588,9.588,0,0,0,290.815,600c-15.3,3.5-26.542,16.483-40.779,23.043-.551.259-1.1.5-1.661.735a24.186,24.186,0,0,0-5.22,2.668,5.947,5.947,0,0,0-2.341,3.3,12.347,12.347,0,0,0,.129,4.437,22.655,22.655,0,0,1-.306,7.234,22.086,22.086,0,0,1-.728,2.722c-.544,1.613-1.273,3.192-1.967,4.764q-5.444-3.662-10.732-7.486-7.391-5.322-14.6-10.957l-2.92-2.348A305.064,305.064,0,0,1,174.42,595.73c1.45-4.083,3.546-7.881,4.553-12.066.572-2.4.783-4.9,1.572-7.234a26.009,26.009,0,0,1,3.757-6.737,91.194,91.194,0,0,1,20.92-20.934c8.432-6.043,18.171-10.889,25.759-17.749a40.651,40.651,0,0,0,7.874-9.33,5.818,5.818,0,0,0,.361-.681,14.122,14.122,0,0,0,1.218-3.893c.544-3.049.463-6.4.735-9.324a99.45,99.45,0,0,0,27.991.844c10.855-1.218,21.472-4.233,32.326-5.4.817-.1,1.64-.17,2.464-.238,3.478-.279,6.962-.34,10.453-.3,2.92,0,5.839.129,8.759.224L355.3,504c3.559.122,7.193.259,10.508,1.558,3.934,1.545,7.085,4.621,9.609,8,.32.435.64.871.939,1.32a41.514,41.514,0,0,1,4.954,9.793c.129.354.252.681.368,1.068.306.946.572,1.9.81,2.865.184.756.347,1.511.5,2.273.749,3.77,1.191,7.622,2.375,11.263.082.265.17.531.265.789,1.422,3.988,3.784,7.561,5.567,11.392a42.318,42.318,0,0,1,2.926,8.663A42.812,42.812,0,0,1,394.205,581.2Z" transform="translate(-129.591 -193.569)" fill="#35323e"/>
    <path id="Path_115" data-name="Path 115" d="M312.732,259.663c-2.872-2.287-7.037-.612-10.4.864a66.753,66.753,0,0,1-8.684,3.137,3.669,3.669,0,0,1-1.906.2c-1.361-.327-1.933-1.94-2.947-2.92-1.763-1.695-4.648-1.293-6.921-.374s-4.519,2.246-6.955,2.042c-2.6-.2-4.859-2.123-7.486-2.185-4.628-.109-8.514,5.594-12.89,4.083-2.668-.919-4.764-4.39-7.391-3.4-2.042.776-2.225,3.6-3.457,5.444-1.45,2.151-4.274,2.756-6.69,3.709a19.219,19.219,0,0,0-11.665,19.62c.551,4.485,2.722,8.6,4.158,12.876,4.26,12.447,2.8,26.487,8.167,38.492.681-.64,1.062-.878,1.722-1.511a15.748,15.748,0,0,0-.919,11.3c.565,1.885,1.484,3.641,2.178,5.485a49.156,49.156,0,0,1,1.742,6.329l5.921,26.12c2.314,10.208,4.635,20.417,5.036,30.87a90.089,90.089,0,0,1-1.552,20.281c10.726-1.776,20.539-6.533,31.408-6.472a87.565,87.565,0,0,1,11.9,1.225,244.9,244.9,0,0,0,34.8,2.362,13.815,13.815,0,0,0,5.336-.749,40.024,40.024,0,0,0,4.138-2.6,18.3,18.3,0,0,1,9.317-2.042c14.557-.265,28.583,5.063,43.045,6.942,5.71-11.985,6.05-26.344,1.667-38.873-1.3-3.723-3.049-7.35-3.566-11.263a56.985,56.985,0,0,1-.163-7.234,52.476,52.476,0,0,0-3.287-18.089c-.844-2.266-1.858-4.573-1.769-6.989s1.279-4.669,2.45-6.806c2.375-4.356,4.764-8.752,8.119-12.427,3.437-3.8,7.738-6.69,11.991-9.528l10.5-7.051c-1.436-9.072-3.287-18.627-7.132-26.97s-9.6-16.014-17.375-20.893a57.412,57.412,0,0,0-8.207-4.083,38.138,38.138,0,0,0-12.42-3.4c-4.9-.279-9.725,1.034-14.564,1.851C342.744,269.592,324.818,269.279,312.732,259.663Z" transform="translate(-145.818 -115.582)" fill="#0e92dd"/>
    <path id="Path_116" data-name="Path 116" d="M391.321,490.079l-5,6.309-9.419,11.889-10.889,13.74-3.042,3.838h-5.9l-146.109.17-91.5.1h-4.083c-.544-1.7-1.048-3.4-1.511-5.172q-1.021-3.8-1.79-7.69c-.109-.5-.2-.994-.293-1.5l33.2-21.7L157.469,490h0l38.179-.218h0l21.322-.122h6.336l14.21-.075h0l108.3-.619h0l5.54-.034h2.4l6.363-.034,23.677-.136,4.546-1.729.333.354Z" transform="translate(-109.585 -188.572)" fill="#3f3d56"/>
    <path id="Path_117" data-name="Path 117" d="M388.245,472.784l-.565.681-3.716,4.376-7.649,9.031-16.041,18.913-142.1-3.627-107.154-2.722c-.109-.5-.2-.994-.293-1.5a128.769,128.769,0,0,1-2.144-26.494l11.883-6.084,2.722-1.4,21.186-10.889,18.593-9.528,48.5,6.3,10.739,1.4,4.859.626,7.112.926.6.082L346.3,467.332l12.325,1.6,7.234.939,22.3,2.9Z" transform="translate(-108.55 -174.679)" fill="#504f60"/>
    <path id="Path_118" data-name="Path 118" d="M476.6,534.51l-.116,2.674-.68,15.1-3.661,83.028-.776,17.946-2.042,46.169-1.15,26.079-4.151-1.3q-3.226-1.028-6.445-2.1l9.957-181.028.211-3.8,4.383-1.361Z" transform="translate(-220.045 -203.739)" fill="#3f3d56"/>
    <path id="Path_119" data-name="Path 119" d="M120.744,534.22l-.306,6.989-.449,10.208q-1.946-4.839-3.566-9.861l-.1-.333c-.544-1.7-1.048-3.4-1.511-5.172Z" transform="translate(-110.549 -203.647)" fill="#3f3d56"/>
    <ellipse id="Ellipse_47" data-name="Ellipse 47" cx="31.306" cy="42.194" rx="31.306" ry="42.194" transform="translate(156.855 143.284)" fill="#a1616a"/>
    <ellipse id="Ellipse_48" data-name="Ellipse 48" cx="31.306" cy="42.194" rx="31.306" ry="42.194" transform="translate(156.855 143.284)" opacity="0.1"/>
    <circle id="Ellipse_49" data-name="Ellipse 49" cx="43.556" cy="43.556" r="43.556" transform="translate(149.029 116.402)" fill="#a1616a"/>
    <path id="Path_120" data-name="Path 120" d="M370.2,184.425a55.766,55.766,0,0,0-7.9,1.2c-6.887,1.674-12.842,5.39-18.64,9.038-2.6,1.64-5.274,3.348-6.887,5.758-2.9,4.322-1.776,9.82-3.4,14.618a42.108,42.108,0,0,1-3.709,6.969c-3.614,6.288-5.506,13.2-7.364,20.036-.381,1.416-.49,3.335,1.055,3.879a4.253,4.253,0,0,0,2.641-.3c4.88-1.613,11.079-2.076,14.7,1.2s3.314,9.079,7.622,11.569c4.934,2.879,12.638-.6,17.116,2.8,1.919,1.456,2.613,3.791,4.185,5.547,3.661,4.083,10.705,3.886,16.565,3.062,3.362-.476,7.486-.8,9.528,1.565.98,1.116,1.259,2.647,2.4,3.655,2.042,1.824,5.778.9,7.772-.973s2.947-4.4,4.607-6.506c3.233-4.083,8.915-6.309,12.25-10.344,2.79-3.4,3.634-7.663,4.4-11.774l2.838-15.238c1.15-6.179,2.2-12.931-1.279-18.375-1.239-1.96-3.015-3.648-4.083-5.676-.715-1.361-1.116-2.8-1.946-4.083a16.949,16.949,0,0,0-3.491-3.525l-6.717-5.56a56.479,56.479,0,0,0-7.343-5.444C395.518,181.934,381.158,183.4,370.2,184.425Z" transform="translate(-176.753 -91.597)" fill="#464353"/>
    <path id="Path_121" data-name="Path 121" d="M159.828,345.915c-1.613,1.715-3.1,3.566-4.832,5.172a58.516,58.516,0,0,1-4.764,3.811q-4,2.994-7.826,6.2a43.831,43.831,0,0,0-7.173,7.166c-3.634,4.88-5.356,10.95-8.759,15.993-3.008,4.471-7.248,8-10.3,12.441a19.246,19.246,0,0,0-2.94,6.173,28.679,28.679,0,0,0-.606,6.526,48.471,48.471,0,0,0,.619,10.746,16.3,16.3,0,0,0,5.111,9.283c2.566,2.144,5.88,3.131,9.126,3.947,1.674.415,3.484.8,5.077.143a8.37,8.37,0,0,0,2.954-2.491l8.282-9.528c5.54-6.4,11.3-12.931,18.9-16.674,2.382-1.164,4.893-2.042,7.282-3.171,10.127-4.88,17.286-14.87,20.063-25.759.681-2.661,1.116-5.376,1.558-8.092l1.2-7.445a2.376,2.376,0,0,0,0-1.137,2.451,2.451,0,0,0-.871-1.034,144.361,144.361,0,0,1-16.156-15.244c-1.184-1.307-2.294-3.1-3.661-4.192-1.715-1.361-1.586-1.259-3.648,0a43.742,43.742,0,0,0-8.629,7.166Z" transform="translate(-109.841 -140.89)" fill="#a1616a"/>
    <path id="Path_122" data-name="Path 122" d="M263.851,422.179a1.279,1.279,0,1,0-2.3,1.116l-.681.333,20.294,41.6,3.668-1.79-20.294-41.623Z" transform="translate(-157.207 -167.61)" fill="#3f3d56"/>
    <path id="Path_123" data-name="Path 123" d="M159.828,345.915c-1.613,1.715-3.1,3.566-4.832,5.172a58.516,58.516,0,0,1-4.764,3.811q-4,2.994-7.826,6.2a43.831,43.831,0,0,0-7.173,7.166c-3.634,4.88-5.356,10.95-8.759,15.993-3.008,4.471-7.248,8-10.3,12.441a19.246,19.246,0,0,0-2.94,6.173,28.679,28.679,0,0,0-.606,6.526,48.471,48.471,0,0,0,.619,10.746,16.3,16.3,0,0,0,5.111,9.283c2.566,2.144,5.88,3.131,9.126,3.947,1.674.415,3.484.8,5.077.143a8.37,8.37,0,0,0,2.954-2.491l8.282-9.528c5.54-6.4,11.3-12.931,18.9-16.674,2.382-1.164,4.893-2.042,7.282-3.171,10.127-4.88,17.286-14.87,20.063-25.759.681-2.661,1.116-5.376,1.558-8.092l1.2-7.445a2.376,2.376,0,0,0,0-1.137,2.451,2.451,0,0,0-.871-1.034,144.361,144.361,0,0,1-16.156-15.244c-1.184-1.307-2.294-3.1-3.661-4.192-1.715-1.361-1.586-1.259-3.648,0a43.742,43.742,0,0,0-8.629,7.166Z" transform="translate(-109.841 -140.89)" opacity="0.04"/>
    <path id="Path_124" data-name="Path 124" d="M503.016,433.293c-.068,4.342-.238,8.813-2.042,12.774-.776,1.715-1.98,3.4-3.784,3.968a8.806,8.806,0,0,1-3.328.122,120.235,120.235,0,0,0-39.806,3.158c3.471-6.942,1.477-15.265,2.436-22.969.265-2.1.749-4.172.932-6.282.681-7.486-2.525-14.754-3.995-22.145a49.546,49.546,0,0,1,0-19.382,12.932,12.932,0,0,1,1.667-4.662,10.944,10.944,0,0,1,3.825-3.328c5.513-3.137,12.012-3.5,18.2-3.083,4.172.279,12.536-.116,16.013,2.45,3.8,2.811,5.009,12.25,6.037,16.612a140.516,140.516,0,0,1,3.131,20.328A218.475,218.475,0,0,1,503.016,433.293Z" transform="translate(-218.414 -151.61)" fill="#a1616a"/>
    <path id="Path_125" data-name="Path 125" d="M59.98,436.03l24.5,16.333,110.25-4.083-72.819-12.25Z" transform="translate(-19.16 -139.28)" fill="#fff"/>
    <path id="Path_126" data-name="Path 126" d="M202.7,290.661c-4.022,3.546-7.432,7.724-11.243,11.5-5.227,5.186-11.168,9.6-17.082,13.985a12.713,12.713,0,0,1,8.847,8.915c.259,1,.388,2.042.681,3.022a16.51,16.51,0,0,0,3.784,6.125c6.9,7.779,16.558,13.536,20.628,23.139a2.137,2.137,0,0,0,.817,1.157,1.79,1.79,0,0,0,1.055.123c3.682-.388,6.5-3.355,8.847-6.241,4.9-6.125,9.153-12.89,11.569-20.362s2.8-15.734.17-23.139a59.232,59.232,0,0,0-5.356-10.433q-2.647-4.4-5.281-8.793c-.919-1.545-2.089-4.682-3.893-5.444C212.355,282.542,205.2,288.163,202.7,290.661Z" transform="translate(-129.579 -123.687)" fill="#0e92dd"/>
    <path id="Path_127" data-name="Path 127" d="M489.156,351.994l5.791,13.611A42.079,42.079,0,0,0,456.9,370.88c-3.3,2.362-6.329,5.329-7.82,9.1a3.974,3.974,0,0,1-3.94-1.545,7.9,7.9,0,0,1-1.456-4.165c-.538-5.227,1.443-10.351,3.4-15.238a21.947,21.947,0,0,1,3.471-6.479,20.276,20.276,0,0,1,5.921-4.24,131.849,131.849,0,0,1,21.471-9.487c3.131-1.014,6.411-.994,8.167,1.933C488.156,344.25,487.563,348.279,489.156,351.994Z" transform="translate(-215.579 -141.035)" fill="#0e92dd"/>
    <path id="Path_128" data-name="Path 128" d="M153.345,416.285c1.45,1.157,2.722,2.525,4.213,3.627a30.093,30.093,0,0,0,5.009,2.811l6.71,3.226a37.593,37.593,0,0,0,6.5,2.641c2.872.769,5.887.844,8.772,1.558,3.641.9,6.969,2.77,10.555,3.852s7.786,1.259,10.78-.994c1.872-1.409,3.287-3.736,5.608-4.083a7.421,7.421,0,0,1,4.274,1.225l17.463,9.181c2.355,1.239,4.846,2.613,6.077,4.975s.4,5.948-2.191,6.561a23.927,23.927,0,0,1-2.722.156,2.134,2.134,0,0,0-2,1.545,3.1,3.1,0,0,0,.429,1.6,6.691,6.691,0,0,1,.1,5.689,4.069,4.069,0,0,1-4.941,2.042c.306,2.634-2.559,4.478-5.111,5.179-6.438,1.763-13.264.681-19.845-.436a27.2,27.2,0,0,1-7.568-2.042c-1.13-.551-2.178-1.259-3.321-1.77-3.137-1.4-6.7-1.211-10.133-1.15-15.864.279-31.591-2.661-47.19-5.587-2.892-.544-5.866-1.123-8.337-2.722-4.764-3.1-6.533-9.473-5.751-15.108s3.641-10.739,6.452-15.694l3.641-6.418a8.261,8.261,0,0,1,1.96-2.586C138.135,409.473,148.758,412.6,153.345,416.285Z" transform="translate(-112.382 -164.486)" fill="#a1616a"/>
    <path id="Path_129" data-name="Path 129" d="M153.345,416.285c1.45,1.157,2.722,2.525,4.213,3.627a30.093,30.093,0,0,0,5.009,2.811l6.71,3.226a37.593,37.593,0,0,0,6.5,2.641c2.872.769,5.887.844,8.772,1.558,3.641.9,6.969,2.77,10.555,3.852s7.786,1.259,10.78-.994c1.872-1.409,3.287-3.736,5.608-4.083a7.421,7.421,0,0,1,4.274,1.225l17.463,9.181c2.355,1.239,4.846,2.613,6.077,4.975s.4,5.948-2.191,6.561a23.927,23.927,0,0,1-2.722.156,2.134,2.134,0,0,0-2,1.545,3.1,3.1,0,0,0,.429,1.6,6.691,6.691,0,0,1,.1,5.689,4.069,4.069,0,0,1-4.941,2.042c.306,2.634-2.559,4.478-5.111,5.179-6.438,1.763-13.264.681-19.845-.436a27.2,27.2,0,0,1-7.568-2.042c-1.13-.551-2.178-1.259-3.321-1.77-3.137-1.4-6.7-1.211-10.133-1.15-15.864.279-31.591-2.661-47.19-5.587-2.892-.544-5.866-1.123-8.337-2.722-4.764-3.1-6.533-9.473-5.751-15.108s3.641-10.739,6.452-15.694l3.641-6.418a8.261,8.261,0,0,1,1.96-2.586C138.135,409.473,148.758,412.6,153.345,416.285Z" transform="translate(-112.382 -164.486)" opacity="0.04"/>
    <path id="Path_130" data-name="Path 130" d="M409.418,434.65c-3.546,1.674-7.615,1.837-11.318,3.124s-6.846,3.6-10.242,5.485c-8.847,4.941-19.056,6.805-29.08,8.582-6.077,1.089-12.25,2.178-18.375,1.919-8.289-.354-16.252-3.117-24.282-5.2s-16.6-3.484-24.554-1.143a27.638,27.638,0,0,0-18.035,17.306,39.862,39.862,0,0,0-1.579,15.326c1.674,1.232,4.015-.476,4.927-2.348s1.409-4.165,3.178-5.254c3.069,1.041,3.818,5.131,6.35,7.153,1.579,1.266,3.689,1.6,5.7,1.885l10.344,1.47c2.491.354,5.383.592,7.187-1.164.878-.851,1.361-2.042,2.164-2.954,1.647-1.824,4.4-2.137,6.846-1.892,7.649.762,14.823,5.724,22.418,4.546a42.5,42.5,0,0,0,7.534-2.4c14.761-5.213,31.163-2.042,46.523-5.029a103.834,103.834,0,0,0,17.075-5.274,34.528,34.528,0,0,0,8.677-4.3,18.266,18.266,0,0,0,7.051-16.2,18.525,18.525,0,0,0-6.54-12c-1.2-1.021-2.77-2.974-4.206-3.614C414.434,431.465,411.745,433.554,409.418,434.65Z" transform="translate(-160.708 -171.091)" fill="#a1616a"/>
    <g id="Group_9" data-name="Group 9" transform="translate(146.664 103.363)" opacity="0.1">
      <path id="Path_131" data-name="Path 131" d="M406.215,273.615c-1.137-1.007-1.416-2.538-2.4-3.655-2.042-2.362-6.166-2.042-9.528-1.565-5.86.823-12.931,1.014-16.565-3.062-1.572-1.756-2.266-4.083-4.185-5.546-4.478-3.4-12.182.082-17.116-2.8-4.308-2.511-4.029-8.337-7.622-11.569s-9.82-2.811-14.7-1.2a4.253,4.253,0,0,1-2.641.3c-1.545-.544-1.436-2.464-1.055-3.879,1.858-6.84,3.75-13.747,7.364-20.036a42.1,42.1,0,0,0,3.709-6.969c1.477-4.315.721-9.194,2.661-13.278a18.326,18.326,0,0,0-5.37,4.764c-2.9,4.322-1.776,9.82-3.4,14.618a42.1,42.1,0,0,1-3.709,6.969c-3.614,6.288-5.506,13.2-7.364,20.036-.381,1.416-.49,3.335,1.055,3.879a4.253,4.253,0,0,0,2.641-.3c4.88-1.613,11.079-2.076,14.7,1.2s3.314,9.079,7.622,11.569c4.934,2.879,12.638-.6,17.116,2.8,1.919,1.456,2.613,3.791,4.185,5.547,3.661,4.083,10.705,3.886,16.565,3.063,3.362-.476,7.486-.8,9.528,1.565.98,1.116,1.259,2.647,2.4,3.655,2.042,1.824,5.778.9,7.772-.973a20.638,20.638,0,0,0,3.253-4.451A5.063,5.063,0,0,1,406.215,273.615Z" transform="translate(-324.055 -200.36)"/>
      <path id="Path_132" data-name="Path 132" d="M462.428,294.1a19.36,19.36,0,0,0-1.218,1.763c2.613-1.865,5.383-3.607,7.336-5.982a14.443,14.443,0,0,0,1.361-1.96C467.192,289.866,464.361,291.656,462.428,294.1Z" transform="translate(-367.869 -228.331)"/>
    </g>
    <path id="Path_133" data-name="Path 133" d="M556.48,446.53l2.042,195.32,9.528-1.361L566.008,446.53Z" transform="translate(-177.764 -142.634)" fill="#3f3d56"/>
    <path id="Path_134" data-name="Path 134" d="M640.48,498.53l2.042,195.32,9.528-1.361L650.008,498.53Z" transform="translate(-204.597 -159.246)" fill="#3f3d56"/>
    <path id="Path_135" data-name="Path 135" d="M1005.59,645.681h0l-.041-3.75V639.7l-.361-34.354-.565-53.709-.1-4.635H995l.048,4.464.3,28.767.129,12.454h0l.109,10.086.177,17.436.109,10.283h0v1.089l.143,13.516.122,11.917.776-.858q1.872-2.089,3.662-4.247Z" transform="translate(-391.721 -207.729)" fill="#3f3d56"/>
    <path id="Path_136" data-name="Path 136" d="M622.424,545.03l-5.444,8.139,5.444,37.083L668.7,602.918h74.861l44.917,2.715,21.4-14.646-3.7-25.153-16.333-20.8Z" transform="translate(-197.09 -174.1)" fill="#0e92dd"/>
    <path id="Path_137" data-name="Path 137" d="M723.986,605.48l-2.722,22.608S706.973,672.413,821.986,669.7s95.278-11.76,95.278-11.76l-.681-26.229s4.008,12.413-54.445,10.732-112.972-7.112-112.972-7.112S728.75,638.943,723.986,605.48Z" transform="translate(-304.097 -226.41)" fill="#3f3d56"/>
    <path id="Path_138" data-name="Path 138" d="M853.4,306.3c-6.561,2.988-11.529,8.779-14.857,15.183s-5.2,13.434-7.044,20.417a181.781,181.781,0,0,0-4.907,22.3c-1.8,13.421-.449,27.528,5.717,39.581s17.558,21.778,30.9,24.1a56.866,56.866,0,0,0,15.653.184,127.262,127.262,0,0,0,27.637-6.091c9.358-3.165,19.1-8.037,23.261-17.014,2.416-5.206,2.62-11.141,2.5-16.871a179.467,179.467,0,0,0-7.016-46.135c-1.259-4.356-2.722-8.745-5.39-12.413s-6.316-6.356-10.038-8.847C893.9,309.97,872.982,297.4,853.4,306.3Z" transform="translate(-337.69 -129.874)" fill="#fbbebe"/>
    <path id="Path_139" data-name="Path 139" d="M853.4,306.3c-6.561,2.988-11.529,8.779-14.857,15.183s-5.2,13.434-7.044,20.417a181.781,181.781,0,0,0-4.907,22.3c-1.8,13.421-.449,27.528,5.717,39.581s17.558,21.778,30.9,24.1a56.866,56.866,0,0,0,15.653.184,127.262,127.262,0,0,0,27.637-6.091c9.358-3.165,19.1-8.037,23.261-17.014,2.416-5.206,2.62-11.141,2.5-16.871a179.467,179.467,0,0,0-7.016-46.135c-1.259-4.356-2.722-8.745-5.39-12.413s-6.316-6.356-10.038-8.847C893.9,309.97,872.982,297.4,853.4,306.3Z" transform="translate(-337.69 -129.874)" opacity="0.05"/>
    <path id="Path_140" data-name="Path 140" d="M827.376,406.078a30.891,30.891,0,0,0,6.805,6.806c6.479,4.478,14.8,5.084,22.663,5.329,6.315.191,13.557-.17,17.518-5.1,1.783-2.219,2.586-5.05,3.307-7.806a346.23,346.23,0,0,0,9.46-51.566l18.021.061c7.8,33.395,7.159,68.11,6.479,102.4l-.987,50.007-11.61-1.232c-27.569-2.92-55.18-5.839-82.9-6.343a474.186,474.186,0,0,0-48.673,1.606l25.283-75.174c3.28-9.773,6.595-19.675,7.364-29.944,1.109-14.9-3.069-30.625,2.722-44.406a5.4,5.4,0,0,1,2.1-2.838,5.973,5.973,0,0,1,3.6-.279c2.287.306,9.276,0,10.936,1.463,2.45,2.123.83,2.443-.034,5.866-1.545,6.125-3.008,11.794-2.988,18.178C816.467,384.7,820.06,396.939,827.376,406.078Z" transform="translate(-319.034 -143.989)" fill="#0e92dd"/>
    <path id="Path_141" data-name="Path 141" d="M989.556,568.937h0q4.553-6.043,8.582-12.515c-1.361-2.913-2.858-5.758-4.049-8.732a87.732,87.732,0,0,1-3.906-14.19q-.531-2.45-1.055-4.9c-3.811-17.769-7.391-35.79-8.133-53.8q-.1-2.246-.129-4.492V464.71c.082-4.083.34-8.2.81-12.3.088-.8.19-1.606.3-2.409a3.461,3.461,0,0,1,.068-.524l46.278-1.688h0l3.893-.143c2.675-.1,5.506-.245,7.711-1.763,3.709-2.545,4.145-7.765,4.083-12.25a181.851,181.851,0,0,0-3.838-33.721c-1.756-8.344-4.26-16.871-9.882-23.282-4.614-5.267-11.3-9.1-13.7-15.653-.891-2.436-1.116-5.111-2.273-7.439s-3.069-4.036-4.873-5.832a81.209,81.209,0,0,1-15.585-21.587c-2.756-5.553-5.744-11.678-9.344-15.517-.177-.2-.354-.381-.538-.558-3.063-3.029-6.567-4.356-10.719-2.293a13.721,13.721,0,0,0-2.123,1.32h0a25.855,25.855,0,0,0-4.036,3.838,91.883,91.883,0,0,0-10.977,15.653,87,87,0,0,0-5.608,12.25,84.5,84.5,0,0,0-3.028,10.208c-.585,2.566-1.048,5.159-1.416,7.758-1.361,9.773-1.361,19.736-1.171,29.631.2,9.092.606,18.2,1.429,27.263q.306,3.287.68,6.567.749,6.486,1.851,12.931c.293,1.64.592,3.28.926,4.914.081.436.17.871.259,1.3l.041.184a110.557,110.557,0,0,1,2.089,11.508q.082.728.122,1.45a56.036,56.036,0,0,1-.054,6.676c-.157,2.627-.4,5.247-.524,7.874a12.779,12.779,0,0,1-.048,1.361c-.034,1.327,0,2.654,0,3.981a63.1,63.1,0,0,0,1.13,9.453,61.141,61.141,0,0,0,5.887,16.633c.259.49.524.973.789,1.45,3.45,6.166,7.806,11.821,11,18.13a78.263,78.263,0,0,1,6.125,17.837q.681,3.056,1.293,6.125c.633,3.267,1.2,6.561,1.776,9.854.054.327.115.681.177.98.769,4.369,1.579,8.718,2.62,12.985.606,2.484,1.286,4.934,2.083,7.343Z" transform="translate(-375.687 -130.985)" fill="#464353"/>
    <path id="Path_142" data-name="Path 142" d="M937.974,597.6c0,.613-.041,1.225-.068,1.844a87.236,87.236,0,0,1-.823,8.922,58.053,58.053,0,0,1-2.947,11.835,39.906,39.906,0,0,1-3.512,7.221,33.29,33.29,0,0,1-4.369,5.628c-4.083,4.247-9.963,5.6-15.653,7.391a38.53,38.53,0,0,0-7.547,3.083c-.429.238-.851.5-1.259.769l-7.119,4.716a21.3,21.3,0,0,0-6.009,5.152,11.1,11.1,0,0,0-.681,1.15,26.074,26.074,0,0,0-2.1,6.288c-3.7,15.422-7.411,30.857-9.95,46.509-.17,1.035-.333,2.076-.51,3.117l-.061.327a1.7,1.7,0,0,0-.109-.225,409.573,409.573,0,0,1-56.554,28.9l-4.226-35.389a42.817,42.817,0,0,1-.436-8.7c.4-4.58,2.266-8.922,2.77-13.489a22.981,22.981,0,0,0-2.43-12.978c-.8-1.552-1.81-3.076-1.994-4.812a2.993,2.993,0,0,1,2.559-3.5c1.361-1.511,1.47-3.573,1.068-5.615a16.324,16.324,0,0,0-.953-3.11c-1.157-2.845-2.62-5.941-1.627-8.847a3.305,3.305,0,0,0,.34-1.7.277.277,0,0,0,0-.109c-.231-.762-1.136-1.1-1.606-1.742-.885-1.2,0-2.845.544-4.233a16.153,16.153,0,0,0,.912-4.635c.075-.878.129-1.763.225-2.634a26.548,26.548,0,0,1,.633-3.5,27.61,27.61,0,0,1,11.181-16.007c2.647-1.783,5.594-3.083,8.3-4.764a75.994,75.994,0,0,0,7.908-6.125q8.99-7.486,18.695-14.115a236.12,236.12,0,0,1,21.587-13.108q2.382-1.286,4.764-2.5,2.593-1.361,5.22-2.579c5.608-2.674,11.971-1.674,18.171.109,2.6.742,5.165,1.626,7.643,2.429a35.407,35.407,0,0,1,6.942,3.117c5.492,3.226,10.031,7.99,11.917,14.006a.719.719,0,0,1,0,.116A35.641,35.641,0,0,1,937.974,597.6Z" transform="translate(-333.198 -213.286)" fill="#f86d70"/>
    <path id="Path_143" data-name="Path 143" d="M937.974,597.6c0,.613-.041,1.225-.068,1.844a87.236,87.236,0,0,1-.823,8.922,58.053,58.053,0,0,1-2.947,11.835,39.906,39.906,0,0,1-3.512,7.221,33.29,33.29,0,0,1-4.369,5.628c-4.083,4.247-9.963,5.6-15.653,7.391a38.53,38.53,0,0,0-7.547,3.083c-.429.238-.851.5-1.259.769l-7.119,4.716a21.3,21.3,0,0,0-6.009,5.152,11.1,11.1,0,0,0-.681,1.15,26.074,26.074,0,0,0-2.1,6.288c-3.7,15.422-7.411,30.857-9.95,46.509-.17,1.035-.333,2.076-.51,3.117l-.061.327a1.7,1.7,0,0,0-.109-.225,409.573,409.573,0,0,1-56.554,28.9l-4.226-35.389a42.817,42.817,0,0,1-.436-8.7c.4-4.58,2.266-8.922,2.77-13.489a22.981,22.981,0,0,0-2.43-12.978c-.8-1.552-1.81-3.076-1.994-4.812a2.993,2.993,0,0,1,2.559-3.5c1.361-1.511,1.47-3.573,1.068-5.615a16.324,16.324,0,0,0-.953-3.11c-1.157-2.845-2.62-5.941-1.627-8.847a3.305,3.305,0,0,0,.34-1.7.277.277,0,0,0,0-.109c-.231-.762-1.136-1.1-1.606-1.742-.885-1.2,0-2.845.544-4.233a16.153,16.153,0,0,0,.912-4.635c.075-.878.129-1.763.225-2.634a26.548,26.548,0,0,1,.633-3.5,27.61,27.61,0,0,1,11.181-16.007c2.647-1.783,5.594-3.083,8.3-4.764a75.994,75.994,0,0,0,7.908-6.125q8.99-7.486,18.695-14.115a236.12,236.12,0,0,1,21.587-13.108q2.382-1.286,4.764-2.5,2.593-1.361,5.22-2.579c5.608-2.674,11.971-1.674,18.171.109,2.6.742,5.165,1.626,7.643,2.429a35.407,35.407,0,0,1,6.942,3.117c5.492,3.226,10.031,7.99,11.917,14.006a.719.719,0,0,1,0,.116A35.641,35.641,0,0,1,937.974,597.6Z" transform="translate(-333.198 -213.286)" opacity="0.1"/>
    <path id="Path_144" data-name="Path 144" d="M900.851,447.179a1.28,1.28,0,1,0-2.3,1.116l-.681.333,20.294,41.6,3.668-1.79-20.294-41.623Z" transform="translate(-360.693 -175.596)" fill="#3f3d56"/>
    <circle id="Ellipse_50" data-name="Ellipse 50" cx="43.556" cy="43.556" r="43.556" transform="translate(521.973 140.902)" fill="#fbbebe"/>
    <path id="Path_145" data-name="Path 145" d="M977.048,242.548a57.865,57.865,0,0,0-1.538-10.27c-2.559-11-7.234-21.839-15.285-29.74a59.577,59.577,0,0,0-1.776-5.71,1.1,1.1,0,0,0-.048-.136,63.909,63.909,0,0,0-10.276-18.219c-2.552-3.171-5.86-6.3-9.93-6.424a8.05,8.05,0,0,1-3.4-.367,6.126,6.126,0,0,1-1.9-1.946,17.824,17.824,0,0,0-17.259-6.458l-.422.088c-.238.048-.476.1-.681.163s-.572.163-.857.252q.469.776.919,1.572,1.211,2.157,2.246,4.41.857,1.878,1.586,3.818c-6.969.8-12.645,5.744-17.831,10.453l-12.209,11.079a.508.508,0,0,0-.061.061l-.354.34c-.089.088-.177.177-.259.272a.586.586,0,0,0-.089.1c-.1.109-.2.225-.292.34a5.153,5.153,0,0,0-.456.681,2.481,2.481,0,0,0-.177.32.649.649,0,0,0-.048.1,2.5,2.5,0,0,0-.116.286.1.1,0,0,0,0,.041,1.551,1.551,0,0,0-.048.17,2.042,2.042,0,0,0,.116,1.443l8.051.089h.946c.041,1.075.075,2.157.116,3.233a45.853,45.853,0,0,0-3.675,3.062,39.91,39.91,0,0,0-3.587,3.784c-7.261,8.772-11.052,20.1-11.433,31.51v4.165c0,.681.061,1.361.116,2.042a5.1,5.1,0,0,0,.681,2.525,2.331,2.331,0,0,0,.191.245,4.7,4.7,0,0,0,1.443,1.062l.585.286h0c.293.143.572.279.844.436,2.566,1.45,4.083,4.247,6.418,6.043.136.1.272.2.408.293l.306.2.19.122.259.15a5.58,5.58,0,0,0,.524.279h0l.326.163h.055c.272.122.544.238.823.34l.388.136.116.041c.109.034.225.075.34.1q.347.1.68.184l.681.15c.265.048.538.1.81.129l.4.054.408.041q.973.088,1.96.1h0a49,49,0,0,0,6.173-.429l17.368-2.042c3.94-.456,7.963-.912,11.848-.109,3.294.681,6.329,2.246,9.528,3.355.721.252,1.443.483,2.171.681.266.075.538.157.81.225l.374.1.871.211c.313.075.626.15.939.211.442.1.878.177,1.32.259.3.061.606.109.912.163h.061l.871.136h.211l.646.088c.313.048.626.089.946.123q1.041.129,2.083.225c1.123.109,2.253.191,3.4.259l1.13.068,1.13.054,3.4.15h.626a17.56,17.56,0,0,0,4.233-.218c.245-.048.483-.1.721-.17s.436-.136.681-.218a11.651,11.651,0,0,0,5.71-5.642c.272-.51.524-1.021.755-1.545s.442-1.055.633-1.586c.238-.681.442-1.327.619-2.008.054-.184.1-.368.143-.558s.136-.565.191-.851c.17-.783.3-1.572.395-2.368a7.28,7.28,0,0,1,.089-.762c.061-.681.109-1.313.136-1.98v-1.524C977.1,243.977,977.048,243.249,977.048,242.548ZM959.6,201.919c-.551-.517-1.116-1.014-1.688-1.484a7.033,7.033,0,0,1,1.681,1.484Z" transform="translate(-354.033 -85.053)" fill="#464353"/>
    <path id="Path_146" data-name="Path 146" d="M780.171,311.959c-5.125-.633-10.208-2.879-15.265-1.776-3.165.681-5.887,2.647-8.419,4.669A102.363,102.363,0,0,0,732.825,341.9a14.288,14.288,0,0,0-2.185,5.118,13.566,13.566,0,0,0,.939,6.316c4.655,13.754,14.611,25.242,19.144,39.037,4.764,14.509,3.11,30.366-.4,45.23a189.023,189.023,0,0,1-20.988,52.2,29.768,29.768,0,0,1-4.832,6.615c-2.477,2.382-5.805,4.083-7.275,7.2a32.263,32.263,0,0,0-1.361,4.369c-1.361,4.083-4.655,7.582-4.975,11.889-.238,3.287,1.32,6.4,2.266,9.528a26.255,26.255,0,0,1-.483,16.4c-3.45,9.46-12.474,18.062-9.854,27.787,5.846-1.681,12.325-3.865,15.081-9.29.973-1.919,1.456-4.206,3.1-5.608,3.273-2.784,8.847-.266,12.325-2.825,2.627-1.946,2.722-5.934,1.552-9s-3.185-5.757-4.083-8.908c-1.565-5.683.939-11.692.476-17.565-.218-2.722-1.055-5.329-1.116-8.037-.116-5.261,2.8-10.208,6.669-13.781s8.657-5.941,13.366-8.276l17.8-8.847c6.458-3.2,13.536-7.1,15.653-13.985a28.322,28.322,0,0,0,.851-8.024c.606-41.18,10.923-81.531,21.179-121.418a150.407,150.407,0,0,1,5.581-18.321c2.368-5.934,7-10.7,9.365-16.211C806.917,301.893,794.4,313.742,780.171,311.959Z" transform="translate(-298.235 -129.896)" fill="#464353"/>
    <path id="Path_147" data-name="Path 147" d="M893.175,647.164c1.572,9.528,2.532,19.26,3.28,28.944a331.113,331.113,0,0,1-38.839,27.181c-.762.47-1.531.932-2.3,1.361l-.061.327a1.72,1.72,0,0,0-.109-.225,10.243,10.243,0,0,0-5.118-5.05q-7.534-15.823-15.054-31.646c-2.722-5.7-5.444-11.447-6.805-17.592a2.713,2.713,0,0,0-.082-.395c-1.034-4.764-1.273-9.712-1.96-14.537a41.992,41.992,0,0,0-1.858-8.126c-.817-2.348-1.94-4.628-2.933-6.921a23.047,23.047,0,0,1-2.3-8.752,5.719,5.719,0,0,0-.415-2.858,7.407,7.407,0,0,0-1.858-1.8,7.085,7.085,0,0,1-2.286-6.472c-4.083.211-6.384,4.6-8.024,8.323a45.374,45.374,0,0,1-5.826,10.208,19.359,19.359,0,0,1-6.452,5.369c-.224.109-.449.218-.681.313-5.683,2.5-12.318,1.62-18.477.49-5.383-.987-10.95-2.212-15.279-5.56l-.463-.367a20,20,0,0,1-3.4-3.634c-3.627-4.954-5.233-11.481-6.125-17.694-.082-.585-.163-1.17-.238-1.756a65.441,65.441,0,0,1-.51-13.257c.082-1.089.2-2.178.34-3.26.1-.681.2-1.416.313-2.123a.191.191,0,0,1,0-.061c.177-1.123.367-2.253.558-3.4.681-3.859,1.361-7.82,3.4-11.141a21.094,21.094,0,0,1,5.009-5.363c.735-.578,1.491-1.13,2.253-1.661,1.239-.857,2.511-1.674,3.8-2.443a65.763,65.763,0,0,1,10.208-4.968c.844-.327,1.7-.633,2.559-.926a20.084,20.084,0,0,1,10.4-.823,54.717,54.717,0,0,0,9.31.544c7.983-.157,16-1.681,23.969-2.668,11.066-1.361,22.955-1.524,32.605,4.083.463.266.912.544,1.361.837a40.324,40.324,0,0,1,11.7,12.366c.68,1.028,1.273,2.082,1.858,3.151a80.254,80.254,0,0,1,3.655,7.554,9.394,9.394,0,0,1,1.014,4.083,5.316,5.316,0,0,1-.109.8c-.184.966-.551,1.906-.681,2.886-.429,3.709,2.722,6.805,3.9,10.338.762,2.3.681,4.764,1.109,7.187.619,3.4,2.287,6.465,3.784,9.528a119.157,119.157,0,0,1,6.057,15.224c1.184,3.627,2.2,7.309,3.09,11.025q.436,1.79.823,3.586C892.031,640.692,892.637,643.918,893.175,647.164Z" transform="translate(-313.096 -206.756)" fill="#f86d70"/>
    <path id="Path_148" data-name="Path 148" d="M829.605,481.461v4.764l-.878-.014-.98-.014-10.944-.136-26.964-.354-7.568-.1-1.96-.027-11.359-.143-16.007-.211-33.96-.442-58.929-.762-21.267-.272-8.534-.109-7.854-.1-4.893-.068-4.635-.061-34.361-.442-9.528-.122-2.076-.027-1.347-3.478-9.793-25.255-1.79-4.614,1.361-5.444,6.125,4.083,3.77.47L627.31,456.3l11.651,1.45,24.7,3.076,24.2,3.008,9.487,1.177,56.139,6.983,15.687,1.953,12.985,1.613,46.169,5.744Z" transform="translate(-176.965 -141.836)" fill="#3f3d56"/>
    <path id="Path_149" data-name="Path 149" d="M555.98,444.03l12.25,31.986,262.014,5.444V446.752Z" transform="translate(-177.604 -141.836)" fill="#504f60"/>
    <path id="Path_150" data-name="Path 150" d="M575.98,496.03l2.042,195.32,9.528-1.361L585.508,496.03Z" transform="translate(-183.993 -158.447)" fill="#3f3d56"/>
    <path id="Path_151" data-name="Path 151" d="M1060.582,553.062h-.98a215.384,215.384,0,0,1-7.847,35.927l-3.1-36.069-.129-1.538,11.447-1.32.381-.041Z" transform="translate(-408.821 -208.694)" fill="#3f3d56"/>
    <path id="Path_152" data-name="Path 152" d="M841.647,465.961,741.945,468,710.98,457.794l83.028-4.764Z" transform="translate(-227.118 -144.711)" fill="#fff"/>
    <path id="Path_153" data-name="Path 153" d="M825.144,460.252a6.683,6.683,0,0,0-2.722,1.94,7.187,7.187,0,0,0-1.014,3.09l-1.674,9.984a4.417,4.417,0,0,0,.129,2.77c.436.837,1.7,1.273,2.334.578a8.966,8.966,0,0,0,1.225,5.628c1.137,1.592,3.518,2.43,5.125,1.32a3.321,3.321,0,0,0,5,.776c-.966.327-1.034,1.8-.347,2.552A4.444,4.444,0,0,0,835.978,490a67.913,67.913,0,0,0,35.321-4.444c1.055-.436-1.722-13.441-2-14.775-.681-3.137-1.021-6.969-3.668-9.079-6.329-5.05-17.572-6.043-25.283-5.444A43.556,43.556,0,0,0,825.144,460.252Z" transform="translate(-335.681 -178.692)" fill="#fbbebe"/>
    <path id="Path_154" data-name="Path 154" d="M942.234,459.827c-24.616.47-49.742.871-73.235-6.5a49.682,49.682,0,0,1-.449,26.453l115.1,9.528c4.88.4,25.113,2.688,29.87,1.538S973.6,474.983,975.4,470.43c4.961-12.543,21.58-19.893,9.609-20.362C969.905,449.469,957.458,459.541,942.234,459.827Z" transform="translate(-351.327 -176.757)" opacity="0.1"/>
    <path id="Path_155" data-name="Path 155" d="M943.234,461.827c-24.616.47-49.742.871-73.235-6.5a49.681,49.681,0,0,1-.449,26.453l115.1,9.528c4.879.4,25.112,2.722,29.87,1.538s3.641-7.017,5.444-11.569c4.961-12.543-21.975-28.74-33.946-29.209C970.905,451.469,958.458,461.541,943.234,461.827Z" transform="translate(-351.647 -177.395)" fill="#464353"/>
    <path id="Path_156" data-name="Path 156" d="M898.537,467.252a6.663,6.663,0,0,1,2.722,1.94,7.289,7.289,0,0,1,1.021,3.09l1.674,9.984a4.464,4.464,0,0,1-.129,2.77c-.436.837-1.708,1.273-2.334.578a9.01,9.01,0,0,1-1.225,5.628c-1.136,1.592-3.518,2.43-5.131,1.32a3.321,3.321,0,0,1-5,.776c.966.327,1.041,1.8.354,2.552A4.465,4.465,0,0,1,887.7,497a67.885,67.885,0,0,1-35.314-4.444c-1.055-.436,1.715-13.441,2-14.775.68-3.137,1.021-6.969,3.668-9.079,6.322-5.05,17.572-6.043,25.283-5.444A43.555,43.555,0,0,1,898.537,467.252Z" transform="translate(-346.088 -180.928)" fill="#fbbebe"/>
    <path id="Path_157" data-name="Path 157" d="M677.448,411.87a43.57,43.57,0,0,0-5.982,9.283c-2.784,6.479-2.375,13.815-1.912,20.852a12.163,12.163,0,0,0,1.361,5.819,9.828,9.828,0,0,0,3.552,3.029c5.894,3.348,12.794,4.349,19.532,5.1q15.476,1.715,31.061,2.089c25.739.626,51.872-1.477,76.944,4.356-3.1-4.716-3.1-10.957-1.361-16.333s5.077-10.059,8.351-14.666c-11.474-3.634-23.779,2.042-35.8,1.477-12.338-.578-23.758-7.711-36.11-7.7-2.654,0-5.356.333-7.935-.306s-5.077-2.586-5.315-5.233c3.294.742,6.418-2.076,7.779-5.165s1.606-6.581,2.926-9.691c3.287-7.738,12.168-11.324,17.695-17.694a4.336,4.336,0,0,0,.306-6.574c-4.594-6.125-11.515-9.528-17.266-14.292-2-1.661-6.036-7.922-8.282-8.5-4.165-1.068-7.7,4.948-10.406,7.881Q696.075,387.88,677.448,411.87Z" transform="translate(-287.653 -147.222)" fill="#464353"/>
    <path id="Path_158" data-name="Path 158" d="M882.39,434.81a22.532,22.532,0,0,1,4.553,4.512,7.772,7.772,0,0,1,1.422,6.084,9.092,9.092,0,0,1,5.669-9.412Z" transform="translate(-355.748 -171.891)" opacity="0.07"/>
    <g id="Group_10" data-name="Group 10" transform="translate(522.89 78.223)" opacity="0.1">
      <path id="Path_159" data-name="Path 159" d="M935.62,169.647a59.108,59.108,0,0,0-2.763-6.227,16.682,16.682,0,0,0-1.987.51,57.56,57.56,0,0,1,3.151,6.009A11.421,11.421,0,0,1,935.62,169.647Z" transform="translate(-894.125 -163.42)"/>
      <path id="Path_160" data-name="Path 160" d="M995.87,212c.184.15.361.32.538.476a.994.994,0,0,0-.048-.129Q996.129,212.177,995.87,212Z" transform="translate(-914.888 -178.939)"/>
      <path id="Path_161" data-name="Path 161" d="M899.038,214.451c.354-.279.68-.572,1.062-.844l-.109-3.233-7.268-.075c-1.177,1.082-2.43,2.634-1.735,4.083Z" transform="translate(-881.321 -178.396)"/>
      <path id="Path_162" data-name="Path 162" d="M974.056,290.348a11.624,11.624,0,0,1-5.71,5.642,15.481,15.481,0,0,1-6.234.585c-7.173-.293-14.469-.612-21.247-2.988-3.171-1.116-6.207-2.675-9.528-3.362-3.886-.8-7.908-.347-11.848.116l-17.368,2.042c-5.125.6-10.834,1.048-14.925-2.1-2.341-1.8-3.852-4.594-6.418-6.037-1.082-.612-2.368-1.007-3.069-2.042a5.1,5.1,0,0,1-.681-2.525c-.055-.715-.088-1.429-.116-2.144a57.615,57.615,0,0,0,.116,6.227,5.1,5.1,0,0,0,.681,2.525c.681,1.028,1.987,1.422,3.069,2.042,2.566,1.443,4.083,4.24,6.418,6.037,4.083,3.144,9.8,2.722,14.925,2.1l17.368-2.042c3.94-.463,7.962-.919,11.848-.116,3.294.681,6.329,2.246,9.528,3.362,6.805,2.375,14.074,2.722,21.247,2.988a15.6,15.6,0,0,0,6.234-.585,11.623,11.623,0,0,0,5.71-5.642c2.5-4.662,3.205-9.95,2.94-15.278a26.581,26.581,0,0,1-2.94,11.2Z" transform="translate(-876.877 -199.875)"/>
    </g>
    <path id="Path_163" data-name="Path 163" d="M937.56,179l9.528,8.847S938.921,184.444,937.56,179Z" transform="translate(-373.372 -90.174)" opacity="0.1"/>
  </g>
</svg>
