<svg id="Group_13" data-name="Group 13" xmlns="http://www.w3.org/2000/svg" width="736.533" height="424.281" viewBox="0 0 736.533 424.281">
  <path id="Path_164" data-name="Path 164" d="M675.319,442.022,628.353,464.25l41.567-31.082a234.555,234.555,0,0,0-22.7-29.865L443.538,453.93l183.986-70.184a234.52,234.52,0,0,0-26.717-20.365l-310.37,49.993a232.6,232.6,0,0,0-50.942,145.16H706.685A232.479,232.479,0,0,0,675.319,442.022Z" transform="translate(-157.662 -220.062)" fill="#f2f2f2"/>
  <path id="Path_165" data-name="Path 165" d="M589.389,339.126a233.758,233.758,0,0,0-281.835,60.582C380.929,383.631,508.682,355.8,589.389,339.126Z" transform="translate(-171.646 -210.238)" fill="#f2f2f2"/>
  <path id="Path_166" data-name="Path 166" d="M585.548,339.2c-8,23.673-20.256,45.242-45.242,45.242s-43.834-20.3-45.242-45.242c-1.8-31.877,19.679-45.374,45.242-45.242C570.5,294.109,595.037,311.1,585.548,339.2Z" transform="translate(-210.151 -205.797)" fill="#2f2e41"/>
  <rect id="Rectangle_87" data-name="Rectangle 87" width="74.001" height="107.844" transform="translate(292.829 127.38)" fill="#2f2e41"/>
  <path id="Path_167" data-name="Path 167" d="M536.812,417.452s2.367,33.926-3.156,39.449,48.917,10.257,48.128,3.945-11.046-47.339-7.89-56.018S536.812,417.452,536.812,417.452Z" transform="translate(-218.021 -228.151)" fill="#ffb8b8"/>
  <path id="Path_168" data-name="Path 168" d="M536.812,417.452s2.367,33.926-3.156,39.449,48.917,10.257,48.128,3.945-11.046-47.339-7.89-56.018S536.812,417.452,536.812,417.452Z" transform="translate(-218.021 -228.151)" opacity="0.1"/>
  <path id="Path_169" data-name="Path 169" d="M452.239,518.248,423.89,614.109l-1.136,3.861h-47.7c18.981-58.756,65.907-145.4,65.907-145.4l7.326-1.661Z" transform="translate(-185.514 -242.156)" fill="#0e92dd"/>
  <path id="Path_170" data-name="Path 170" d="M452.239,518.248,423.89,614.109l-1.136,3.861h-47.7c18.981-58.756,65.907-145.4,65.907-145.4l7.326-1.661Z" transform="translate(-185.514 -242.156)" opacity="0.1"/>
  <circle id="Ellipse_51" data-name="Ellipse 51" cx="35.504" cy="35.504" r="35.504" transform="translate(292.755 130.128)" fill="#ffb8b8"/>
  <path id="Path_171" data-name="Path 171" d="M581.507,460.331s-12.624,11.835-26.825,9.468-20.164-19.637-20.164-19.637l-13.763,10.169s-3.945,28.4,14.2,31.559,44.183,3.945,49.706,0S581.507,460.331,581.507,460.331Z" transform="translate(-215.377 -237.893)" fill="#3f3d56"/>
  <path id="Path_172" data-name="Path 172" d="M607.5,503.137l-2.264,7.357L573.276,614.706H435.71a32.243,32.243,0,0,0,.644-3.861c1.78-14.834.731-52.257.731-54.831,0-3.162,13.4-81.265,16.574-86.795a5.131,5.131,0,0,1,1.883-1.573c3.679-2.113,11.815-4.481,20.587-6.571.008-.008.008-.008.016-.008,4.9-1.192,10.019-2.288,14.659-3.218h.008c4.553-.914,8.636-1.661,11.624-2.153a47.632,47.632,0,0,1,4.871-.675c.731,0,1.263.866,1.621,2.193,1.2,4.322.739,13.579.739,13.579a23.975,23.975,0,0,0,3.544,3.321,45.012,45.012,0,0,0,9.9,5.9,58.711,58.711,0,0,0,9.391,3.2h.008a68.629,68.629,0,0,0,10.289,1.788,31.75,31.75,0,0,0,8.5-.167h.016c8.366-1.383,11.433-6.579,12.864-10.726.254-.755.453-1.478.628-2.137,0-.008.008-.024.008-.032.524-2.026.747-3.448,1.3-3.424h.008c1.438.135,19.577,15.684,31.36,25.894,5.594,4.839,9.749,8.494,10,8.716Z" transform="translate(-197.977 -238.891)" fill="#0e92dd"/>
  <path id="Path_173" data-name="Path 173" d="M637.463,522.226,605.5,626.438H592.54a8.528,8.528,0,0,0,1.422-5.832c-.413-2.908,8.589-32.536,17.257-60.107C619.1,535.448,626.7,512.12,626.7,512.12l7.492,3.544S635.54,518.2,637.463,522.226Z" transform="translate(-230.201 -250.623)" opacity="0.1"/>
  <path id="Path_174" data-name="Path 174" d="M661.535,615.324c-1.557.389-1.39,5.013-1.478,9.789H598.83a9.025,9.025,0,0,0,1.955-6.627c-.405-2.789,5.633-31.543,11.727-59.312,4.791-21.961,9.622-43.31,11.3-50.739.413-1.8.636-2.765.636-2.765l.723.342.016.008L641,513.536l.016.008s24.456,46.56,16.574,57.6c-7.9,11.044-7.9,11.044-4.743,16.574C656,593.236,664.681,614.537,661.535,615.324Z" transform="translate(-231.493 -249.298)" fill="#0e92dd"/>
  <circle id="Ellipse_52" data-name="Ellipse 52" cx="17.859" cy="17.859" r="17.859" transform="translate(312.296 61.964)" fill="#2f2e41"/>
  <path id="Path_175" data-name="Path 175" d="M524.137,266.859a17.859,17.859,0,0,1,16.072-17.769c-.587-.058-1.182-.09-1.785-.09a17.859,17.859,0,1,0,0,35.717c.6,0,1.2-.032,1.786-.09a17.86,17.86,0,0,1-16.073-17.768Z" transform="translate(-215.412 -196.561)" fill="#2f2e41"/>
  <path id="Path_176" data-name="Path 176" d="M524.519,334.325s-.373-2.076-14.957,3.393-23.327,45.829-16.034,69.528c2.939,9.551.548,16.437-3.354,21.255-14.642,18.08-8.878,45.237,12.449,54.534q.9.394,1.843.778l9.115,5.469s-11.62-15.289-5.8-34.847a100.275,100.275,0,0,0,1.81-51.334c-.667-2.864-1.425-5.816-2.286-8.829-7.292-25.522-3.746-22.575,21.777-48.1,0,0,14.584,10.938,27.346,16.407s23.7,10.938,14.584,29.168-30.991,34.638-16.407,58.337,16.407,14.584,14.584,23.7h0L567.36,482.9,578.3,471.964l-7.292,14.584s23.7,0,30.992-18.23l3.646,3.646s14.584-25.522-12.761-49.222c0,0-9.115-5.469,3.646-23.7s2.961-57.425-13.447-64.718S524.519,334.325,524.519,334.325Z" transform="translate(-207.5 -213.426)" fill="#2f2e41"/>
  <path id="Path_177" data-name="Path 177" d="M405.292,296.659l-30.376,52.612h7.1v7.1l34.522-59.713Z" transform="translate(-77.032 -60.953)" fill="#3f3d56"/>
  <rect id="Rectangle_88" data-name="Rectangle 88" width="123.153" height="48.467" transform="translate(601.462 340.855)" fill="#f2f2f2"/>
  <rect id="Rectangle_89" data-name="Rectangle 89" width="92.166" height="7.945" transform="translate(616.956 402.829)" fill="#f2f2f2"/>
  <rect id="Rectangle_90" data-name="Rectangle 90" width="92.166" height="6.356" transform="translate(616.956 417.13)" fill="#f2f2f2"/>
  <circle id="Ellipse_53" data-name="Ellipse 53" cx="3.178" cy="3.178" r="3.178" transform="translate(9.534 6.356)" fill="#0e92dd"/>
  <circle id="Ellipse_54" data-name="Ellipse 54" cx="3.178" cy="3.178" r="3.178" transform="translate(18.274 6.356)" fill="#0e92dd"/>
  <circle id="Ellipse_55" data-name="Ellipse 55" cx="3.178" cy="3.178" r="3.178" transform="translate(27.014 6.356)" fill="#0e92dd"/>
  <path id="Path_178" data-name="Path 178" d="M873.033,607.281H136.5V183H873.033Zm-734.944-1.589H871.444v-421.1H138.089Z" transform="translate(-136.5 -183)" fill="#2f2e41"/>
  <rect id="Rectangle_91" data-name="Rectangle 91" width="734.944" height="1.589" transform="translate(0.795 15.959)" fill="#2f2e41"/>
  <rect id="Rectangle_92" data-name="Rectangle 92" width="23.836" height="1.589" transform="translate(9.534 29.398)" fill="#2f2e41"/>
  <rect id="Rectangle_93" data-name="Rectangle 93" width="23.836" height="1.589" transform="translate(9.534 35.754)" fill="#2f2e41"/>
  <rect id="Rectangle_94" data-name="Rectangle 94" width="23.836" height="1.589" transform="translate(9.534 42.11)" fill="#2f2e41"/>
  <path id="Path_179" data-name="Path 179" d="M699.067,234.3H403.5V220H699.067Zm-293.978-1.589H697.478V221.589H405.089Z" transform="translate(-191.359 -190.602)" fill="#2f2e41"/>
  <path id="Path_180" data-name="Path 180" d="M759.678,229.856a3.178,3.178,0,1,1,3.178-3.178A3.178,3.178,0,0,1,759.678,229.856Zm0-4.767a1.589,1.589,0,1,0,1.589,1.589A1.589,1.589,0,0,0,759.678,225.089Z" transform="translate(-263.889 -191.321)" fill="#2f2e41"/>
  <rect id="Rectangle_95" data-name="Rectangle 95" width="1.589" height="4.362" transform="matrix(0.696, -0.718, 0.718, 0.696, 496.873, 37.659)" fill="#2f2e41"/>
  <path id="Path_181" data-name="Path 181" d="M995.391,234.3H979.5V220h15.891Zm-14.3-1.589H993.8V221.589H981.089Z" transform="translate(-309.708 -190.602)" fill="#2f2e41"/>
  <path id="Path_182" data-name="Path 182" d="M1020.391,234.3H1004.5V220h15.891Zm-14.3-1.589H1018.8V221.589h-12.713Z" transform="translate(-314.845 -190.602)" fill="#2f2e41"/>
  <path id="Path_183" data-name="Path 183" d="M1045.391,234.3H1029.5V220h15.891Zm-14.3-1.589H1043.8V221.589h-12.713Z" transform="translate(-319.981 -190.602)" fill="#2f2e41"/>
  <rect id="Rectangle_96" data-name="Rectangle 96" width="14.302" height="12.713" transform="translate(528.365 385.349)" fill="#ff6584"/>
  <rect id="Rectangle_97" data-name="Rectangle 97" width="14.302" height="12.713" transform="translate(548.229 385.349)" fill="#f2f2f2"/>
  <rect id="Rectangle_98" data-name="Rectangle 98" width="14.302" height="12.713" transform="translate(568.092 385.349)" fill="#f2f2f2"/>
  <path id="Path_184" data-name="Path 184" d="M728.372,577.279H186.5V269H728.372ZM188.089,575.69H726.783v-305.1H188.089Z" transform="translate(-146.773 -200.67)" fill="#2f2e41"/>
  <path id="Path_185" data-name="Path 185" d="M286.738,621.32v7.465l-12.4-7.568a.435.435,0,0,0-.655.374v16.36a.435.435,0,0,0,.655.374l12.4-7.568v7.465a.217.217,0,0,0,.217.217H290.8a.217.217,0,0,0,.217-.217v-16.9a.217.217,0,0,0-.217-.217h-3.846A.217.217,0,0,0,286.738,621.32Z" transform="translate(-164.686 -273.015)" fill="#3f3d56"/>
  <path id="Path_186" data-name="Path 186" d="M247.486,638.438H244.03a.436.436,0,0,1-.439-.433V621.537a.436.436,0,0,1,.439-.433h3.456a.436.436,0,0,1,.439.433v16.469A.436.436,0,0,1,247.486,638.438Zm9.534,0h-3.456a.436.436,0,0,1-.439-.433V621.537a.436.436,0,0,1,.439-.433h3.456a.436.436,0,0,1,.439.433v16.469a.436.436,0,0,1-.439.433Z" transform="translate(-158.504 -273.015)" fill="#3f3d56"/>
  <path id="Path_187" data-name="Path 187" d="M215.5,621.554V637.99a.423.423,0,0,0,.634.39l13.029-8.218a.465.465,0,0,0,0-.775l-13.028-8.218a.419.419,0,0,0-.634.385Z" transform="translate(-152.732 -273.017)" fill="#0e92dd"/>
  <rect id="Rectangle_99" data-name="Rectangle 99" width="490.228" height="3.178" transform="translate(65.549 336.882)" fill="#2f2e41"/>
  <rect id="Rectangle_100" data-name="Rectangle 100" width="85.412" height="3.178" transform="translate(65.549 336.882)" fill="#0e92dd"/>
  <rect id="Rectangle_101" data-name="Rectangle 101" width="224.853" height="8.74" transform="translate(40.521 386.938)" fill="#f2f2f2"/>
  <rect id="Rectangle_102" data-name="Rectangle 102" width="49.261" height="8.74" transform="translate(40.521 406.801)" fill="#f2f2f2"/>
  <rect id="Rectangle_103" data-name="Rectangle 103" width="123.153" height="48.467" transform="translate(601.462 85.015)" fill="#f2f2f2"/>
  <rect id="Rectangle_104" data-name="Rectangle 104" width="92.166" height="7.945" transform="translate(616.956 146.989)" fill="#f2f2f2"/>
  <rect id="Rectangle_105" data-name="Rectangle 105" width="92.166" height="7.945" transform="translate(616.956 161.29)" fill="#f2f2f2"/>
  <rect id="Rectangle_106" data-name="Rectangle 106" width="92.166" height="7.945" transform="translate(616.956 175.592)" fill="#f2f2f2"/>
  <rect id="Rectangle_107" data-name="Rectangle 107" width="123.153" height="48.467" transform="translate(601.462 212.935)" fill="#f2f2f2"/>
  <rect id="Rectangle_108" data-name="Rectangle 108" width="92.166" height="7.945" transform="translate(616.956 274.909)" fill="#f2f2f2"/>
  <rect id="Rectangle_109" data-name="Rectangle 109" width="92.166" height="7.945" transform="translate(616.956 289.21)" fill="#f2f2f2"/>
  <rect id="Rectangle_110" data-name="Rectangle 110" width="92.166" height="7.945" transform="translate(616.956 303.512)" fill="#f2f2f2"/>
</svg>
