<svg xmlns="http://www.w3.org/2000/svg" width="475.677" height="474.869" viewBox="0 0 475.677 474.869">
  <g id="pattern" transform="translate(-7494.22 -1300.903)">
    <path id="Path_1545" data-name="Path 1545" d="M1183.72,239.57l4.65,4.65-4.65,4.65-4.65-4.65,4.65-4.65m0-7.07L1172,244.22l11.73,11.72,11.72-11.72-11.72-11.72Z" transform="translate(6322.22 1103.73)" fill="#0e92dd"/>
    <path id="Path_1546" data-name="Path 1546" d="M1287.83,204.78l4.65,4.65-4.65,4.65-4.65-4.65,4.65-4.65m0-7.07-11.72,11.72,11.72,11.72,11.73-11.72Z" transform="translate(6322.22 1103.73)" fill="#0e92dd"/>
    <path id="Path_1547" data-name="Path 1547" d="M1177.08,313.63l5.46,4.86,8.25-9.67" transform="translate(6322.22 1103.73)" fill="none" stroke="#0e92dd" stroke-linecap="round" stroke-linejoin="round" stroke-width="5"/>
    <line id="Line_199" data-name="Line 199" y1="9.7" x2="9.71" transform="translate(7535.94 1377.57)" fill="none" stroke="#0e92dd" stroke-linecap="round" stroke-linejoin="round" stroke-width="5"/>
    <path id="Path_1548" data-name="Path 1548" d="M1259.43,247.13l2.67,5.43,5.99.87-4.33,4.22,1.02,5.96-5.35-2.82-5.36,2.82,1.03-5.96-4.33-4.22,5.98-.87Z" transform="translate(6316 1092.42)" fill="#0e92dd"/>
    <rect id="Rectangle_333" data-name="Rectangle 333" width="16.58" height="16.58" transform="translate(7494.445 1486.317) rotate(-45)" fill="#0e92dd"/>
    <circle id="Ellipse_260" data-name="Ellipse 260" cx="9.75" cy="9.75" r="9.75" transform="translate(7531.04 1441.94)" fill="#0e92dd"/>
    <path id="Path_1549" data-name="Path 1549" d="M1257.89,307.06l1.3,1.75c4.2,5.45-12.29-5.18-6.21,4.92s-9.33,0-6.17,5l1.19,1.85" transform="translate(6322.22 1103.73)" fill="none" stroke="#0e92dd" stroke-linecap="round" stroke-linejoin="round" stroke-width="5"/>
    <path id="Path_1550" data-name="Path 1550" d="M1281,279l5.46,4.85,8.25-9.66" transform="translate(6322.22 1103.73)" fill="none" stroke="#0e92dd" stroke-linecap="round" stroke-linejoin="round" stroke-width="5"/>
    <line id="Line_200" data-name="Line 200" y1="9.7" x2="9.7" transform="translate(7639.84 1342.94)" fill="none" stroke="#0e92dd" stroke-linecap="round" stroke-linejoin="round" stroke-width="5"/>
    <path id="Path_1551" data-name="Path 1551" d="M1363.32,212.5l2.68,5.42,5.98.87-4.33,4.22,1.03,5.96-5.36-2.81-5.35,2.81,1.02-5.96-4.33-4.22,5.99-.87Z" transform="translate(6316 1092.42)" fill="#0e92dd"/>
    <rect id="Rectangle_334" data-name="Rectangle 334" width="16.58" height="16.58" transform="translate(7529.54 1312.627) rotate(-45)" fill="#0e92dd"/>
    <path id="Path_1552" data-name="Path 1552" d="M1601,585.16l4.65,4.65-4.65,4.65-4.65-4.65,4.65-4.65m0-7.07-11.72,11.72L1601,601.53l11.72-11.72L1601,578.09Z" transform="translate(6322.22 1103.73)" fill="#0e92dd"/>
    <line id="Line_201" data-name="Line 201" y1="9.7" x2="9.7" transform="translate(7849.12 1757.96)" fill="none" stroke="#0e92dd" stroke-linecap="round" stroke-linejoin="round" stroke-width="5"/>
    <path id="Path_1553" data-name="Path 1553" d="M1572.6,627.52l2.68,5.42,5.98.87-4.33,4.22,1.02,5.96-5.35-2.81-5.35,2.81,1.02-5.96-4.33-4.22,5.98-.87Z" transform="translate(6316 1092.42)" fill="#0e92dd"/>
    <path id="Path_1554" data-name="Path 1554" d="M1594.15,659.39l5.46,4.85,8.25-9.67" transform="translate(6322.22 1103.73)" fill="none" stroke="#0e92dd" stroke-linecap="round" stroke-linejoin="round" stroke-width="5"/>
    <line id="Line_202" data-name="Line 202" y1="9.71" x2="9.71" transform="translate(7953.01 1723.32)" fill="none" stroke="#0e92dd" stroke-linecap="round" stroke-linejoin="round" stroke-width="5"/>
    <path id="Path_1555" data-name="Path 1555" d="M1607.91,600.38" transform="translate(6322.22 1103.73)" fill="none" stroke="#0e92dd" stroke-miterlimit="10" stroke-width="3"/>
    <path id="Path_1556" data-name="Path 1556" d="M1537.43,517.45" transform="translate(6322.22 1103.73)" fill="none" stroke="#0e92dd" stroke-miterlimit="10" stroke-width="3"/>
    <path id="Path_1557" data-name="Path 1557" d="M1392.63,655l4.65,4.65-4.65,4.65-4.65-4.65,4.65-4.65m0-7.07-11.72,11.72,11.72,11.72,11.72-11.72L1392.63,648Z" transform="translate(6322.22 1103.73)" fill="#0e92dd"/>
    <path id="Path_1558" data-name="Path 1558" d="M1496.53,620.41l4.65,4.65-4.65,4.65-4.65-4.65,4.65-4.65m0-7.07-11.72,11.72,11.72,11.72,11.72-11.72Z" transform="translate(6322.22 1103.73)" fill="#0e92dd"/>
    <path id="Path_1559" data-name="Path 1559" d="M1468.12,662.76l2.68,5.43,5.98.87-4.33,4.22,1.02,5.96-5.35-2.82-5.35,2.82,1.02-5.96-4.33-4.22,5.98-.87Z" transform="translate(6316 1092.42)" fill="#0e92dd"/>
    <path id="Path_1560" data-name="Path 1560" d="M1426.58,482.5l4.65,4.65-4.65,4.65-4.65-4.65,4.65-4.65m0-7.07-11.72,11.72,11.72,11.72,11.72-11.72Z" transform="translate(6322.22 1103.73)" fill="#0e92dd"/>
    <circle id="Ellipse_261" data-name="Ellipse 261" cx="9.75" cy="9.75" r="9.75" transform="translate(7565.89 1754.29)" fill="#0e92dd"/>
    <path id="Path_1561" data-name="Path 1561" d="M1285,626.15" transform="translate(6322.22 1103.73)" fill="#0e92dd" stroke="#0e92dd" stroke-miterlimit="10" stroke-width="5"/>
    <path id="Path_1562" data-name="Path 1562" d="M1292.73,619.41l1.3,1.76c4.21,5.45-12.28-5.18-6.21,4.92s-9.33,0-6.16,5l1.18,1.85" transform="translate(6322.22 1103.73)" fill="none" stroke="#0e92dd" stroke-linecap="round" stroke-linejoin="round" stroke-width="5"/>
    <path id="Path_1563" data-name="Path 1563" d="M1308.71,588.71" transform="translate(6322.22 1103.73)" fill="none" stroke="#0e92dd" stroke-miterlimit="10" stroke-width="3"/>
    <path id="Path_1564" data-name="Path 1564" d="M1225.46,567.15" transform="translate(6322.22 1103.73)" fill="none" stroke="#0e92dd" stroke-miterlimit="10" stroke-width="3"/>
    <path id="Path_1565" data-name="Path 1565" d="M1315.83,591.36l5.45,4.85,8.25-9.66" transform="translate(6322.22 1103.73)" fill="none" stroke="#0e92dd" stroke-linecap="round" stroke-linejoin="round" stroke-width="5"/>
    <path id="Path_1566" data-name="Path 1566" d="M1275.52,565.93" transform="translate(6322.22 1103.73)" fill="none" stroke="#0e92dd" stroke-miterlimit="10" stroke-width="3"/>
    <path id="Path_1567" data-name="Path 1567" d="M1286.07,578.54" transform="translate(6322.22 1103.73)" fill="none" stroke="#0e92dd" stroke-linecap="round" stroke-linejoin="round" stroke-width="3"/>
    <line id="Line_203" data-name="Line 203" y1="9.7" x2="9.71" transform="translate(7674.68 1655.3)" fill="none" stroke="#0e92dd" stroke-linecap="round" stroke-linejoin="round" stroke-width="5"/>
    <path id="Path_1568" data-name="Path 1568" d="M1398.17,524.86l2.68,5.42,5.98.87-4.33,4.22,1.02,5.96-5.35-2.81-5.35,2.81,1.02-5.96-4.33-4.22,5.98-.87Z" transform="translate(6316 1092.42)" fill="#0e92dd"/>
    <rect id="Rectangle_335" data-name="Rectangle 335" width="16.58" height="16.58" transform="translate(7633.195 1764.049) rotate(-45)" fill="#0e92dd"/>
    <path id="Path_1569" data-name="Path 1569" d="M1530.47,447.87l4.66,4.65-4.66,4.65-4.65-4.65,4.65-4.65m0-7.07-11.72,11.72,11.72,11.72,11.73-11.72Z" transform="translate(6322.22 1103.73)" fill="#0e92dd"/>
    <circle id="Ellipse_262" data-name="Ellipse 262" cx="9.75" cy="9.75" r="9.75" transform="translate(7669.79 1719.66)" fill="#0e92dd"/>
    <path id="Path_1570" data-name="Path 1570" d="M1396.63,584.78l1.3,1.76c4.2,5.44-12.28-5.19-6.21,4.92s-9.33,0-6.17,4.95l1.19,1.86" transform="translate(6322.22 1103.73)" fill="none" stroke="#0e92dd" stroke-linecap="round" stroke-linejoin="round" stroke-width="5"/>
    <path id="Path_1571" data-name="Path 1571" d="M1419.72,556.73l5.46,4.85,8.25-9.67" transform="translate(6322.22 1103.73)" fill="none" stroke="#0e92dd" stroke-linecap="round" stroke-linejoin="round" stroke-width="5"/>
    <line id="Line_204" data-name="Line 204" y1="9.71" x2="9.71" transform="translate(7778.58 1620.66)" fill="none" stroke="#0e92dd" stroke-linecap="round" stroke-linejoin="round" stroke-width="5"/>
    <path id="Path_1572" data-name="Path 1572" d="M1502.07,490.23l2.67,5.42,5.99.87-4.33,4.22,1.02,5.96-5.35-2.82-5.36,2.82,1.03-5.96-4.33-4.22,5.98-.87Z" transform="translate(6316 1092.42)" fill="#0e92dd"/>
    <rect id="Rectangle_336" data-name="Rectangle 336" width="16.58" height="16.58" transform="translate(7737.309 1729.254) rotate(-45)" fill="#0e92dd"/>
    <path id="Path_1573" data-name="Path 1573" d="M1634.59,413.08l4.65,4.65-4.65,4.65-4.65-4.65,4.65-4.65m0-7.07-11.72,11.72,11.72,11.72,11.72-11.72L1634.59,406Z" transform="translate(6322.22 1103.73)" fill="#0e92dd"/>
    <circle id="Ellipse_263" data-name="Ellipse 263" cx="9.75" cy="9.75" r="9.75" transform="translate(7773.9 1684.87)" fill="#0e92dd"/>
    <path id="Path_1574" data-name="Path 1574" d="M1493,556.72" transform="translate(6322.22 1103.73)" fill="#0e92dd" stroke="#0e92dd" stroke-miterlimit="10" stroke-width="5"/>
    <path id="Path_1575" data-name="Path 1575" d="M1500.75,550l1.3,1.76c4.2,5.44-12.28-5.19-6.21,4.91s-9.33,0-6.17,5l1.19,1.86" transform="translate(6322.22 1103.73)" fill="none" stroke="#0e92dd" stroke-linecap="round" stroke-linejoin="round" stroke-width="5"/>
    <path id="Path_1576" data-name="Path 1576" d="M1516.72,519.29" transform="translate(6322.22 1103.73)" fill="none" stroke="#0e92dd" stroke-miterlimit="10" stroke-width="3"/>
    <path id="Path_1577" data-name="Path 1577" d="M1433.48,497.72" transform="translate(6322.22 1103.73)" fill="none" stroke="#0e92dd" stroke-miterlimit="10" stroke-width="3"/>
    <path id="Path_1578" data-name="Path 1578" d="M1363,414.78" transform="translate(6322.22 1103.73)" fill="none" stroke="#0e92dd" stroke-miterlimit="10" stroke-width="3"/>
    <path id="Path_1579" data-name="Path 1579" d="M1523.84,521.93l5.46,4.86,8.25-9.67" transform="translate(6322.22 1103.73)" fill="none" stroke="#0e92dd" stroke-linecap="round" stroke-linejoin="round" stroke-width="5"/>
    <path id="Path_1580" data-name="Path 1580" d="M1483.53,496.51" transform="translate(6322.22 1103.73)" fill="none" stroke="#0e92dd" stroke-miterlimit="10" stroke-width="3"/>
    <path id="Path_1581" data-name="Path 1581" d="M1494.09,509.11" transform="translate(6322.22 1103.73)" fill="none" stroke="#0e92dd" stroke-linecap="round" stroke-linejoin="round" stroke-width="3"/>
    <line id="Line_205" data-name="Line 205" y1="9.71" x2="9.7" transform="translate(7882.7 1585.87)" fill="none" stroke="#0e92dd" stroke-linecap="round" stroke-linejoin="round" stroke-width="5"/>
    <path id="Path_1582" data-name="Path 1582" d="M1606.18,455.44l2.68,5.42,5.99.87-4.33,4.22,1.02,5.96-5.36-2.82-5.35,2.82,1.03-5.96-4.33-4.22,5.98-.87Z" transform="translate(6316 1092.42)" fill="#0e92dd"/>
    <rect id="Rectangle_337" data-name="Rectangle 337" width="16.58" height="16.58" transform="translate(7841.204 1694.611) rotate(-45)" fill="#0e92dd"/>
    <circle id="Ellipse_264" data-name="Ellipse 264" cx="9.75" cy="9.75" r="9.75" transform="translate(7877.8 1650.24)" fill="#0e92dd"/>
    <path id="Path_1583" data-name="Path 1583" d="M1604.65,515.36l1.3,1.75c4.2,5.45-12.29-5.18-6.21,4.92s-9.33,0-6.17,5l1.19,1.85" transform="translate(6322.22 1103.73)" fill="none" stroke="#0e92dd" stroke-linecap="round" stroke-linejoin="round" stroke-width="5"/>
    <path id="Path_1584" data-name="Path 1584" d="M1627.74,487.3l5.46,4.85,8.25-9.66" transform="translate(6322.22 1103.73)" fill="none" stroke="#0e92dd" stroke-linecap="round" stroke-linejoin="round" stroke-width="5"/>
    <path id="Path_1585" data-name="Path 1585" d="M1219.54,551.21l4.65,4.65-4.65,4.65-4.66-4.65,4.66-4.65m0-7.07-11.73,11.72,11.73,11.73,11.72-11.73Z" transform="translate(6322.22 1103.73)" fill="#0e92dd"/>
    <path id="Path_1586" data-name="Path 1586" d="M1191.13,593.57l2.67,5.42,5.99.87-4.33,4.22,1.02,5.96-5.35-2.81-5.35,2.81,1.02-5.96-4.33-4.22,5.98-.87Z" transform="translate(6316 1092.42)" fill="#0e92dd"/>
    <path id="Path_1587" data-name="Path 1587" d="M1323.43,516.58l4.65,4.65-4.65,4.65-4.65-4.65,4.65-4.65m0-7.07-11.72,11.72L1323.43,533l11.72-11.72-11.72-11.72Z" transform="translate(6322.22 1103.73)" fill="#0e92dd"/>
    <path id="Path_1588" data-name="Path 1588" d="M1189.59,653.49l1.3,1.76c4.2,5.45-12.28-5.18-6.21,4.92s-9.33,0-6.17,5l1.19,1.85" transform="translate(6322.22 1103.73)" fill="none" stroke="#0e92dd" stroke-linecap="round" stroke-linejoin="round" stroke-width="5"/>
    <path id="Path_1589" data-name="Path 1589" d="M1212.68,625.44l5.46,4.85,8.25-9.66" transform="translate(6322.22 1103.73)" fill="none" stroke="#0e92dd" stroke-linecap="round" stroke-linejoin="round" stroke-width="5"/>
    <line id="Line_206" data-name="Line 206" y1="9.7" x2="9.7" transform="translate(7571.54 1689.38)" fill="none" stroke="#0e92dd" stroke-linecap="round" stroke-linejoin="round" stroke-width="5"/>
    <path id="Path_1590" data-name="Path 1590" d="M1295.03,558.94l2.67,5.42,5.98.87-4.32,4.22,1.02,5.96-5.35-2.81-5.36,2.81,1.02-5.96-4.32-4.22,5.98-.87Z" transform="translate(6316 1092.42)" fill="#0e92dd"/>
    <path id="Path_1591" data-name="Path 1591" d="M1253.48,378.68l4.65,4.65-4.65,4.65-4.65-4.65,4.65-4.65m0-7.07-11.72,11.72,11.72,11.72,11.72-11.72Z" transform="translate(6322.22 1103.73)" fill="#0e92dd"/>
    <line id="Line_207" data-name="Line 207" y1="9.7" x2="9.7" transform="translate(7501.59 1551.47)" fill="none" stroke="#0e92dd" stroke-linecap="round" stroke-linejoin="round" stroke-width="5"/>
    <path id="Path_1592" data-name="Path 1592" d="M1225.07,421.03l2.68,5.43,5.98.86-4.33,4.23,1.02,5.95-5.35-2.81-5.35,2.81,1.02-5.95-4.33-4.23,5.99-.86Z" transform="translate(6316 1092.42)" fill="#0e92dd"/>
    <path id="Path_1593" data-name="Path 1593" d="M1357.38,344l4.65,4.65-4.65,4.65-4.65-4.65,4.65-4.65m0-7.07-11.72,11.72,11.72,11.73,11.72-11.73L1357.38,337Z" transform="translate(6322.22 1103.73)" fill="#0e92dd"/>
    <circle id="Ellipse_265" data-name="Ellipse 265" cx="9.75" cy="9.75" r="9.75" transform="translate(7496.69 1615.84)" fill="#0e92dd"/>
    <path id="Path_1594" data-name="Path 1594" d="M1223.54,481l1.29,1.75c4.21,5.45-12.28-5.18-6.21,4.92s-9.32,0-6.16,5l1.19,1.85" transform="translate(6322.22 1103.73)" fill="none" stroke="#0e92dd" stroke-linecap="round" stroke-linejoin="round" stroke-width="5"/>
    <path id="Path_1595" data-name="Path 1595" d="M1246.63,452.9l5.46,4.85,8.24-9.66" transform="translate(6322.22 1103.73)" fill="none" stroke="#0e92dd" stroke-linecap="round" stroke-linejoin="round" stroke-width="5"/>
    <line id="Line_208" data-name="Line 208" y1="9.7" x2="9.7" transform="translate(7605.49 1516.84)" fill="none" stroke="#0e92dd" stroke-linecap="round" stroke-linejoin="round" stroke-width="5"/>
    <path id="Path_1596" data-name="Path 1596" d="M1328.97,386.4l2.68,5.42,5.98.87-4.33,4.22,1.02,5.96-5.35-2.81-5.35,2.81,1.02-5.96-4.33-4.22,5.99-.87Z" transform="translate(6316 1092.42)" fill="#0e92dd"/>
    <rect id="Rectangle_338" data-name="Rectangle 338" width="16.58" height="16.58" transform="translate(7564.209 1625.425) rotate(-45)" fill="#0e92dd"/>
    <path id="Path_1597" data-name="Path 1597" d="M1461.5,309.25l4.65,4.65-4.65,4.65-4.65-4.65,4.65-4.65m0-7.07-11.72,11.72,11.72,11.72,11.72-11.72Z" transform="translate(6322.22 1103.73)" fill="#0e92dd"/>
    <circle id="Ellipse_266" data-name="Ellipse 266" cx="9.75" cy="9.75" r="9.75" transform="translate(7600.81 1581.05)" fill="#0e92dd"/>
    <path id="Path_1598" data-name="Path 1598" d="M1319.94,452.9" transform="translate(6322.22 1103.73)" fill="#0e92dd" stroke="#0e92dd" stroke-miterlimit="10" stroke-width="5"/>
    <path id="Path_1599" data-name="Path 1599" d="M1327.65,446.17l1.3,1.75c4.21,5.45-12.28-5.18-6.21,4.92s-9.33,0-6.16,5l1.18,1.85" transform="translate(6322.22 1103.73)" fill="none" stroke="#0e92dd" stroke-linecap="round" stroke-linejoin="round" stroke-width="5"/>
    <path id="Path_1600" data-name="Path 1600" d="M1343.63,415.47" transform="translate(6322.22 1103.73)" fill="none" stroke="#0e92dd" stroke-miterlimit="10" stroke-width="3"/>
    <path id="Path_1601" data-name="Path 1601" d="M1260.38,393.9" transform="translate(6322.22 1103.73)" fill="none" stroke="#0e92dd" stroke-miterlimit="10" stroke-width="3"/>
    <path id="Path_1602" data-name="Path 1602" d="M1189.9,311" transform="translate(6322.22 1103.73)" fill="none" stroke="#0e92dd" stroke-miterlimit="10" stroke-width="3"/>
    <path id="Path_1603" data-name="Path 1603" d="M1350.75,418.11l5.45,4.85,8.25-9.66" transform="translate(6322.22 1103.73)" fill="none" stroke="#0e92dd" stroke-linecap="round" stroke-linejoin="round" stroke-width="5"/>
    <path id="Path_1604" data-name="Path 1604" d="M1310.44,392.68" transform="translate(6322.22 1103.73)" fill="none" stroke="#0e92dd" stroke-miterlimit="10" stroke-width="3"/>
    <path id="Path_1605" data-name="Path 1605" d="M1321,405.29" transform="translate(6322.22 1103.73)" fill="none" stroke="#0e92dd" stroke-linecap="round" stroke-linejoin="round" stroke-width="3"/>
    <line id="Line_209" data-name="Line 209" y1="9.7" x2="9.71" transform="translate(7709.6 1482.05)" fill="none" stroke="#0e92dd" stroke-linecap="round" stroke-linejoin="round" stroke-width="5"/>
    <path id="Path_1606" data-name="Path 1606" d="M1433.09,351.61l2.68,5.42,5.98.87-4.33,4.22,1.02,5.96-5.35-2.81-5.35,2.81,1.02-5.96-4.33-4.22,5.98-.87Z" transform="translate(6316 1092.42)" fill="#0e92dd"/>
    <rect id="Rectangle_339" data-name="Rectangle 339" width="16.58" height="16.58" transform="translate(7668.111 1590.799) rotate(-45)" fill="#0e92dd"/>
    <path id="Path_1607" data-name="Path 1607" d="M1565.39,274.62l4.65,4.65-4.65,4.65-4.65-4.65,4.65-4.65m0-7.07-11.72,11.72L1565.39,291l11.73-11.72-11.73-11.72Z" transform="translate(6322.22 1103.73)" fill="#0e92dd"/>
    <circle id="Ellipse_267" data-name="Ellipse 267" cx="9.75" cy="9.75" r="9.75" transform="translate(7704.71 1546.41)" fill="#0e92dd"/>
    <path id="Path_1608" data-name="Path 1608" d="M1431.55,411.53l1.3,1.76c4.2,5.45-12.28-5.18-6.21,4.92s-9.33,0-6.17,5l1.19,1.85" transform="translate(6322.22 1103.73)" fill="none" stroke="#0e92dd" stroke-linecap="round" stroke-linejoin="round" stroke-width="5"/>
    <path id="Path_1609" data-name="Path 1609" d="M1454.64,383.48l5.46,4.85,8.25-9.66" transform="translate(6322.22 1103.73)" fill="none" stroke="#0e92dd" stroke-linecap="round" stroke-linejoin="round" stroke-width="5"/>
    <line id="Line_210" data-name="Line 210" y1="9.71" x2="9.71" transform="translate(7813.5 1447.41)" fill="none" stroke="#0e92dd" stroke-linecap="round" stroke-linejoin="round" stroke-width="5"/>
    <path id="Path_1610" data-name="Path 1610" d="M1536.99,316.98l2.67,5.42,5.99.87-4.33,4.22,1.02,5.96-5.35-2.82-5.36,2.82,1.03-5.96-4.33-4.22,5.98-.87Z" transform="translate(6316 1092.42)" fill="#0e92dd"/>
    <rect id="Rectangle_340" data-name="Rectangle 340" width="16.58" height="16.58" transform="translate(7946.45 1658.014) rotate(-45)" fill="#0e92dd"/>
    <path id="Path_1611" data-name="Path 1611" d="M1642.62,426.49" transform="translate(6322.22 1103.73)" fill="none" stroke="#0e92dd" stroke-miterlimit="10" stroke-width="3"/>
    <rect id="Rectangle_341" data-name="Rectangle 341" width="16.58" height="16.58" transform="translate(7772.017 1555.354) rotate(-45)" fill="#0e92dd"/>
    <circle id="Ellipse_268" data-name="Ellipse 268" cx="9.75" cy="9.75" r="9.75" transform="translate(7808.61 1510.97)" fill="#0e92dd"/>
    <path id="Path_1612" data-name="Path 1612" d="M1527.74,382.83" transform="translate(6322.22 1103.73)" fill="#0e92dd" stroke="#0e92dd" stroke-miterlimit="10" stroke-width="5"/>
    <path id="Path_1613" data-name="Path 1613" d="M1535.46,376.09l1.3,1.76c4.2,5.45-12.29-5.18-6.21,4.92s-9.33,0-6.17,5l1.19,1.85" transform="translate(6322.22 1103.73)" fill="none" stroke="#0e92dd" stroke-linecap="round" stroke-linejoin="round" stroke-width="5"/>
    <path id="Path_1614" data-name="Path 1614" d="M1551.43,345.39" transform="translate(6322.22 1103.73)" fill="none" stroke="#0e92dd" stroke-miterlimit="10" stroke-width="3"/>
    <path id="Path_1615" data-name="Path 1615" d="M1468.19,323.83" transform="translate(6322.22 1103.73)" fill="none" stroke="#0e92dd" stroke-miterlimit="10" stroke-width="3"/>
    <path id="Path_1616" data-name="Path 1616" d="M1558.55,348l5.46,4.85,8.25-9.66" transform="translate(6322.22 1103.73)" fill="none" stroke="#0e92dd" stroke-linecap="round" stroke-linejoin="round" stroke-width="5"/>
    <path id="Path_1617" data-name="Path 1617" d="M1518.24,322.61" transform="translate(6322.22 1103.73)" fill="none" stroke="#0e92dd" stroke-miterlimit="10" stroke-width="3"/>
    <path id="Path_1618" data-name="Path 1618" d="M1528.8,335.22" transform="translate(6322.22 1103.73)" fill="none" stroke="#0e92dd" stroke-linecap="round" stroke-linejoin="round" stroke-width="3"/>
    <line id="Line_211" data-name="Line 211" y1="9.7" x2="9.7" transform="translate(7917.41 1411.98)" fill="none" stroke="#0e92dd" stroke-linecap="round" stroke-linejoin="round" stroke-width="5"/>
    <path id="Path_1619" data-name="Path 1619" d="M1640.89,281.54l2.68,5.42,5.98.87-4.33,4.22,1.02,5.96-5.35-2.81-5.35,2.81,1.02-5.96-4.33-4.22,5.99-.87Z" transform="translate(6316 1092.42)" fill="#0e92dd"/>
    <rect id="Rectangle_342" data-name="Rectangle 342" width="16.58" height="16.58" transform="translate(7875.911 1520.725) rotate(-45)" fill="#0e92dd"/>
    <circle id="Ellipse_269" data-name="Ellipse 269" cx="9.75" cy="9.75" r="9.75" transform="translate(7912.51 1476.34)" fill="#0e92dd"/>
    <path id="Path_1620" data-name="Path 1620" d="M1639.36,341.46l1.29,1.76c4.21,5.44-12.28-5.19-6.21,4.92s-9.32,0-6.16,4.95l1.19,1.86" transform="translate(6322.22 1103.73)" fill="none" stroke="#0e92dd" stroke-linecap="round" stroke-linejoin="round" stroke-width="5"/>
    <rect id="Rectangle_343" data-name="Rectangle 343" width="16.58" height="16.58" transform="translate(7598.917 1451.525) rotate(-45)" fill="#0e92dd"/>
    <circle id="Ellipse_270" data-name="Ellipse 270" cx="9.75" cy="9.75" r="9.75" transform="translate(7635.52 1407.15)" fill="#0e92dd"/>
    <path id="Path_1621" data-name="Path 1621" d="M1354.64,279" transform="translate(6322.22 1103.73)" fill="#0e92dd" stroke="#0e92dd" stroke-miterlimit="10" stroke-width="5"/>
    <path id="Path_1622" data-name="Path 1622" d="M1362.36,272.27l1.3,1.75c4.2,5.45-12.28-5.18-6.21,4.92s-9.33,0-6.17,5l1.19,1.86" transform="translate(6322.22 1103.73)" fill="none" stroke="#0e92dd" stroke-linecap="round" stroke-linejoin="round" stroke-width="5"/>
    <path id="Path_1623" data-name="Path 1623" d="M1378.33,241.57" transform="translate(6322.22 1103.73)" fill="none" stroke="#0e92dd" stroke-miterlimit="10" stroke-width="3"/>
    <path id="Path_1624" data-name="Path 1624" d="M1295.09,220" transform="translate(6322.22 1103.73)" fill="none" stroke="#0e92dd" stroke-miterlimit="10" stroke-width="3"/>
    <path id="Path_1625" data-name="Path 1625" d="M1385.45,244.21l5.46,4.85,8.25-9.66" transform="translate(6322.22 1103.73)" fill="none" stroke="#0e92dd" stroke-linecap="round" stroke-linejoin="round" stroke-width="5"/>
    <path id="Path_1626" data-name="Path 1626" d="M1345.14,218.78" transform="translate(6322.22 1103.73)" fill="none" stroke="#0e92dd" stroke-miterlimit="10" stroke-width="3"/>
    <path id="Path_1627" data-name="Path 1627" d="M1355.7,231.39" transform="translate(6322.22 1103.73)" fill="none" stroke="#0e92dd" stroke-linecap="round" stroke-linejoin="round" stroke-width="3"/>
    <line id="Line_212" data-name="Line 212" y1="9.7" x2="9.71" transform="translate(7744.31 1308.15)" fill="none" stroke="#0e92dd" stroke-linecap="round" stroke-linejoin="round" stroke-width="5"/>
    <rect id="Rectangle_344" data-name="Rectangle 344" width="16.58" height="16.58" transform="translate(7702.818 1416.899) rotate(-45)" fill="#0e92dd"/>
    <circle id="Ellipse_271" data-name="Ellipse 271" cx="9.75" cy="9.75" r="9.75" transform="translate(7739.41 1372.52)" fill="#0e92dd"/>
    <path id="Path_1628" data-name="Path 1628" d="M1466.26,237.64l1.3,1.75c4.2,5.45-12.29-5.18-6.21,4.92s-9.33,0-6.17,5l1.19,1.85" transform="translate(6322.22 1103.73)" fill="none" stroke="#0e92dd" stroke-linecap="round" stroke-linejoin="round" stroke-width="5"/>
    <path id="Path_1629" data-name="Path 1629" d="M1489.35,209.58l5.46,4.85,8.25-9.66" transform="translate(6322.22 1103.73)" fill="none" stroke="#0e92dd" stroke-linecap="round" stroke-linejoin="round" stroke-width="5"/>
    <rect id="Rectangle_345" data-name="Rectangle 345" width="16.58" height="16.58" transform="translate(7806.932 1382.104) rotate(-45)" fill="#0e92dd"/>
    <circle id="Ellipse_272" data-name="Ellipse 272" cx="9.75" cy="9.75" r="9.75" transform="translate(7843.53 1337.73)" fill="#0e92dd"/>
    <path id="Path_1630" data-name="Path 1630" d="M1562.66,209.58" transform="translate(6322.22 1103.73)" fill="#0e92dd" stroke="#0e92dd" stroke-miterlimit="10" stroke-width="5"/>
    <path id="Path_1631" data-name="Path 1631" d="M1570.38,202.85l1.3,1.75c4.2,5.45-12.29-5.18-6.21,4.92s-9.33,0-6.17,5l1.19,1.85" transform="translate(6322.22 1103.73)" fill="none" stroke="#0e92dd" stroke-linecap="round" stroke-linejoin="round" stroke-width="5"/>
    <rect id="Rectangle_346" data-name="Rectangle 346" width="16.58" height="16.58" transform="translate(7910.827 1347.476) rotate(-45)" fill="#0e92dd"/>
    <circle id="Ellipse_273" data-name="Ellipse 273" cx="9.75" cy="9.75" r="9.75" transform="translate(7947.43 1303.09)" fill="#0e92dd"/>
  </g>
</svg>
